<mxfile host="app.diagrams.net" agent="Mozilla/5.0 (Windows NT 10.0; Win64; x64) AppleWebKit/537.36 (KHTML, like Gecko) Chrome/128.0.0.0 Safari/537.36" version="24.7.10">
  <diagram name="Pagina-1" id="n-7yt-X1ZXhQMO1tHJMT">
    <mxGraphModel dx="5987" dy="2228" grid="1" gridSize="10" guides="1" tooltips="1" connect="1" arrows="1" fold="1" page="1" pageScale="1" pageWidth="827" pageHeight="1169" math="0" shadow="0">
      <root>
        <mxCell id="0" />
        <mxCell id="1" parent="0" />
        <mxCell id="S087_MRzJJKmq3OUhPPp-11" style="edgeStyle=orthogonalEdgeStyle;rounded=0;orthogonalLoop=1;jettySize=auto;html=1;entryX=1;entryY=0.5;entryDx=0;entryDy=0;endArrow=none;endFill=0;exitX=0.5;exitY=0.5;exitDx=0;exitDy=0;exitPerimeter=0;" parent="1" source="S087_MRzJJKmq3OUhPPp-2" target="S087_MRzJJKmq3OUhPPp-21" edge="1">
          <mxGeometry relative="1" as="geometry">
            <mxPoint x="673" y="-20" as="sourcePoint" />
          </mxGeometry>
        </mxCell>
        <mxCell id="S087_MRzJJKmq3OUhPPp-2" value="Sistema invio email" style="shape=umlActor;verticalLabelPosition=bottom;verticalAlign=top;html=1;outlineConnect=0;" parent="1" vertex="1">
          <mxGeometry x="753" y="30" width="30" height="60" as="geometry" />
        </mxCell>
        <mxCell id="S087_MRzJJKmq3OUhPPp-6" value="" style="endArrow=none;html=1;rounded=0;" parent="1" edge="1">
          <mxGeometry width="50" height="50" relative="1" as="geometry">
            <mxPoint x="9" y="510" as="sourcePoint" />
            <mxPoint x="819" y="510" as="targetPoint" />
          </mxGeometry>
        </mxCell>
        <mxCell id="S087_MRzJJKmq3OUhPPp-17" value="&amp;lt;&amp;lt;include&amp;gt;&amp;gt;" style="edgeStyle=orthogonalEdgeStyle;rounded=0;orthogonalLoop=1;jettySize=auto;html=1;exitX=1;exitY=0;exitDx=0;exitDy=0;entryX=0;entryY=0.5;entryDx=0;entryDy=0;dashed=1;" parent="1" source="S087_MRzJJKmq3OUhPPp-9" target="S087_MRzJJKmq3OUhPPp-15" edge="1">
          <mxGeometry relative="1" as="geometry" />
        </mxCell>
        <mxCell id="S087_MRzJJKmq3OUhPPp-20" value="&amp;lt;&amp;lt;include&amp;gt;&amp;gt;" style="edgeStyle=orthogonalEdgeStyle;rounded=0;orthogonalLoop=1;jettySize=auto;html=1;exitX=1;exitY=0.5;exitDx=0;exitDy=0;entryX=0;entryY=0.5;entryDx=0;entryDy=0;dashed=1;" parent="1" source="S087_MRzJJKmq3OUhPPp-9" target="S087_MRzJJKmq3OUhPPp-16" edge="1">
          <mxGeometry relative="1" as="geometry" />
        </mxCell>
        <mxCell id="y0pF3mSitlNuGOX3nc8Y-2" value="&amp;lt;&amp;lt;include&amp;gt;&amp;gt;" style="edgeStyle=orthogonalEdgeStyle;rounded=0;orthogonalLoop=1;jettySize=auto;html=1;exitX=0.5;exitY=0;exitDx=0;exitDy=0;entryX=0.5;entryY=1;entryDx=0;entryDy=0;dashed=1;" parent="1" source="S087_MRzJJKmq3OUhPPp-9" target="y0pF3mSitlNuGOX3nc8Y-1" edge="1">
          <mxGeometry relative="1" as="geometry" />
        </mxCell>
        <mxCell id="S087_MRzJJKmq3OUhPPp-9" value="Registrazione" style="ellipse;whiteSpace=wrap;html=1;" parent="1" vertex="1">
          <mxGeometry x="100" y="160" width="120" height="80" as="geometry" />
        </mxCell>
        <mxCell id="S087_MRzJJKmq3OUhPPp-23" style="edgeStyle=orthogonalEdgeStyle;rounded=0;orthogonalLoop=1;jettySize=auto;html=1;exitX=1;exitY=0.5;exitDx=0;exitDy=0;entryX=0;entryY=0.5;entryDx=0;entryDy=0;dashed=1;" parent="1" source="S087_MRzJJKmq3OUhPPp-15" target="S087_MRzJJKmq3OUhPPp-21" edge="1">
          <mxGeometry relative="1" as="geometry" />
        </mxCell>
        <mxCell id="S087_MRzJJKmq3OUhPPp-25" value="&amp;lt;&amp;lt;include&amp;gt;&amp;gt;" style="edgeLabel;html=1;align=center;verticalAlign=middle;resizable=0;points=[];" parent="S087_MRzJJKmq3OUhPPp-23" connectable="0" vertex="1">
          <mxGeometry x="-0.3778" y="2" relative="1" as="geometry">
            <mxPoint x="19" as="offset" />
          </mxGeometry>
        </mxCell>
        <mxCell id="S087_MRzJJKmq3OUhPPp-15" value="Inserimento&lt;br&gt;email" style="ellipse;whiteSpace=wrap;html=1;" parent="1" vertex="1">
          <mxGeometry x="333" y="20" width="120" height="80" as="geometry" />
        </mxCell>
        <mxCell id="uRqSC-uHoUhp1tQpj0x3-2" value="&amp;lt;&amp;lt;include&amp;gt;&amp;gt;" style="edgeStyle=orthogonalEdgeStyle;rounded=0;orthogonalLoop=1;jettySize=auto;html=1;exitX=1;exitY=1;exitDx=0;exitDy=0;entryX=0;entryY=0.5;entryDx=0;entryDy=0;dashed=1;" parent="1" source="S087_MRzJJKmq3OUhPPp-9" target="uRqSC-uHoUhp1tQpj0x3-1" edge="1">
          <mxGeometry relative="1" as="geometry" />
        </mxCell>
        <mxCell id="S087_MRzJJKmq3OUhPPp-16" value="Inserimento&lt;br&gt;password" style="ellipse;whiteSpace=wrap;html=1;" parent="1" vertex="1">
          <mxGeometry x="335" y="160" width="120" height="80" as="geometry" />
        </mxCell>
        <mxCell id="S087_MRzJJKmq3OUhPPp-21" value="Verifica email" style="ellipse;whiteSpace=wrap;html=1;" parent="1" vertex="1">
          <mxGeometry x="563" y="20" width="120" height="80" as="geometry" />
        </mxCell>
        <mxCell id="y0pF3mSitlNuGOX3nc8Y-4" style="edgeStyle=orthogonalEdgeStyle;rounded=0;orthogonalLoop=1;jettySize=auto;html=1;exitX=0.5;exitY=0;exitDx=0;exitDy=0;exitPerimeter=0;entryX=0.5;entryY=1;entryDx=0;entryDy=0;endArrow=none;endFill=0;" parent="1" source="56Hd-n7VkjJ5zE3a1R8d-1" target="S087_MRzJJKmq3OUhPPp-9" edge="1">
          <mxGeometry relative="1" as="geometry" />
        </mxCell>
        <mxCell id="56Hd-n7VkjJ5zE3a1R8d-1" value="Database&amp;nbsp;" style="shape=umlActor;verticalLabelPosition=bottom;verticalAlign=top;html=1;outlineConnect=0;" parent="1" vertex="1">
          <mxGeometry x="145" y="300" width="30" height="60" as="geometry" />
        </mxCell>
        <mxCell id="Z2-DFWVG9txQfcwxgaRv-1" value="&lt;b&gt;DIAGRAMMA ATTIVITA&#39; REGISTRAZIONE&lt;br&gt;&lt;br&gt;&lt;/b&gt;" style="text;html=1;strokeColor=none;fillColor=none;align=center;verticalAlign=middle;whiteSpace=wrap;rounded=0;" parent="1" vertex="1">
          <mxGeometry x="334" y="530" width="160" height="30" as="geometry" />
        </mxCell>
        <mxCell id="Z2-DFWVG9txQfcwxgaRv-41" value="" style="endArrow=none;html=1;rounded=0;" parent="1" edge="1">
          <mxGeometry width="50" height="50" relative="1" as="geometry">
            <mxPoint x="9" y="1220" as="sourcePoint" />
            <mxPoint x="819" y="1220" as="targetPoint" />
          </mxGeometry>
        </mxCell>
        <mxCell id="Z2-DFWVG9txQfcwxgaRv-44" value="&lt;b&gt;LOGIN&lt;br&gt;&lt;/b&gt;" style="text;html=1;strokeColor=none;fillColor=none;align=center;verticalAlign=middle;whiteSpace=wrap;rounded=0;" parent="1" vertex="1">
          <mxGeometry x="334" y="1230" width="160" height="30" as="geometry" />
        </mxCell>
        <mxCell id="Z2-DFWVG9txQfcwxgaRv-47" style="edgeStyle=orthogonalEdgeStyle;rounded=0;orthogonalLoop=1;jettySize=auto;html=1;exitX=0.5;exitY=0.5;exitDx=0;exitDy=0;exitPerimeter=0;entryX=0;entryY=0.5;entryDx=0;entryDy=0;endArrow=none;endFill=0;" parent="1" source="Z2-DFWVG9txQfcwxgaRv-45" target="Z2-DFWVG9txQfcwxgaRv-46" edge="1">
          <mxGeometry relative="1" as="geometry" />
        </mxCell>
        <mxCell id="Z2-DFWVG9txQfcwxgaRv-45" value="Utente" style="shape=umlActor;verticalLabelPosition=bottom;verticalAlign=top;html=1;outlineConnect=0;" parent="1" vertex="1">
          <mxGeometry x="30" y="1480" width="30" height="60" as="geometry" />
        </mxCell>
        <mxCell id="Z2-DFWVG9txQfcwxgaRv-50" value="&amp;lt;&amp;lt;extend&amp;gt;&amp;gt;" style="edgeStyle=orthogonalEdgeStyle;rounded=0;orthogonalLoop=1;jettySize=auto;html=1;exitX=0.5;exitY=1;exitDx=0;exitDy=0;entryX=0.5;entryY=0;entryDx=0;entryDy=0;dashed=1;" parent="1" source="Z2-DFWVG9txQfcwxgaRv-46" target="Z2-DFWVG9txQfcwxgaRv-48" edge="1">
          <mxGeometry x="0.0175" relative="1" as="geometry">
            <mxPoint as="offset" />
          </mxGeometry>
        </mxCell>
        <mxCell id="Z2-DFWVG9txQfcwxgaRv-55" value="&amp;lt;&amp;lt;extend&amp;gt;&amp;gt;" style="edgeStyle=orthogonalEdgeStyle;rounded=0;orthogonalLoop=1;jettySize=auto;html=1;exitX=1;exitY=1;exitDx=0;exitDy=0;entryX=0;entryY=0.5;entryDx=0;entryDy=0;dashed=1;" parent="1" source="Z2-DFWVG9txQfcwxgaRv-46" target="Z2-DFWVG9txQfcwxgaRv-52" edge="1">
          <mxGeometry relative="1" as="geometry">
            <Array as="points">
              <mxPoint x="310" y="1538" />
              <mxPoint x="310" y="1560" />
            </Array>
          </mxGeometry>
        </mxCell>
        <mxCell id="Z2-DFWVG9txQfcwxgaRv-56" value="&amp;lt;&amp;lt;extend&amp;gt;&amp;gt;" style="edgeStyle=orthogonalEdgeStyle;rounded=0;orthogonalLoop=1;jettySize=auto;html=1;exitX=1;exitY=0;exitDx=0;exitDy=0;entryX=0;entryY=0.5;entryDx=0;entryDy=0;dashed=1;" parent="1" source="Z2-DFWVG9txQfcwxgaRv-46" target="Z2-DFWVG9txQfcwxgaRv-51" edge="1">
          <mxGeometry relative="1" as="geometry">
            <Array as="points">
              <mxPoint x="310" y="1482" />
              <mxPoint x="310" y="1460" />
            </Array>
          </mxGeometry>
        </mxCell>
        <mxCell id="Z2-DFWVG9txQfcwxgaRv-46" value="Accesso" style="ellipse;whiteSpace=wrap;html=1;" parent="1" vertex="1">
          <mxGeometry x="140" y="1470" width="120" height="80" as="geometry" />
        </mxCell>
        <mxCell id="Z2-DFWVG9txQfcwxgaRv-48" value="Controllo credenziali inserite" style="ellipse;whiteSpace=wrap;html=1;" parent="1" vertex="1">
          <mxGeometry x="140" y="1610" width="120" height="80" as="geometry" />
        </mxCell>
        <mxCell id="Z2-DFWVG9txQfcwxgaRv-51" value="Inserimento email" style="ellipse;whiteSpace=wrap;html=1;" parent="1" vertex="1">
          <mxGeometry x="355" y="1420" width="120" height="80" as="geometry" />
        </mxCell>
        <mxCell id="Z2-DFWVG9txQfcwxgaRv-52" value="Inserimento password" style="ellipse;whiteSpace=wrap;html=1;" parent="1" vertex="1">
          <mxGeometry x="355" y="1520" width="120" height="80" as="geometry" />
        </mxCell>
        <mxCell id="Z2-DFWVG9txQfcwxgaRv-57" value="" style="endArrow=none;html=1;rounded=0;" parent="1" edge="1">
          <mxGeometry width="50" height="50" relative="1" as="geometry">
            <mxPoint y="1740" as="sourcePoint" />
            <mxPoint x="810" y="1740" as="targetPoint" />
          </mxGeometry>
        </mxCell>
        <mxCell id="Z2-DFWVG9txQfcwxgaRv-58" value="&lt;b&gt;RECUPERO PASSWORD&lt;br&gt;&lt;/b&gt;" style="text;html=1;strokeColor=none;fillColor=none;align=center;verticalAlign=middle;whiteSpace=wrap;rounded=0;" parent="1" vertex="1">
          <mxGeometry x="333" y="1760" width="160" height="30" as="geometry" />
        </mxCell>
        <mxCell id="Z2-DFWVG9txQfcwxgaRv-64" style="edgeStyle=orthogonalEdgeStyle;rounded=0;orthogonalLoop=1;jettySize=auto;html=1;exitX=0.5;exitY=0.5;exitDx=0;exitDy=0;exitPerimeter=0;entryX=0;entryY=0.5;entryDx=0;entryDy=0;endArrow=none;endFill=0;" parent="1" source="Z2-DFWVG9txQfcwxgaRv-59" target="Z2-DFWVG9txQfcwxgaRv-62" edge="1">
          <mxGeometry relative="1" as="geometry" />
        </mxCell>
        <mxCell id="Z2-DFWVG9txQfcwxgaRv-59" value="Utente" style="shape=umlActor;verticalLabelPosition=bottom;verticalAlign=top;html=1;outlineConnect=0;" parent="1" vertex="1">
          <mxGeometry x="240" y="1920" width="30" height="60" as="geometry" />
        </mxCell>
        <mxCell id="Z2-DFWVG9txQfcwxgaRv-65" style="edgeStyle=orthogonalEdgeStyle;rounded=0;orthogonalLoop=1;jettySize=auto;html=1;exitX=0.5;exitY=0.5;exitDx=0;exitDy=0;exitPerimeter=0;entryX=0;entryY=1;entryDx=0;entryDy=0;endArrow=none;endFill=0;" parent="1" source="Z2-DFWVG9txQfcwxgaRv-60" target="Z2-DFWVG9txQfcwxgaRv-62" edge="1">
          <mxGeometry relative="1" as="geometry" />
        </mxCell>
        <mxCell id="Z2-DFWVG9txQfcwxgaRv-60" value="Sistema invio email" style="shape=umlActor;verticalLabelPosition=bottom;verticalAlign=top;html=1;outlineConnect=0;" parent="1" vertex="1">
          <mxGeometry x="240" y="2020" width="30" height="60" as="geometry" />
        </mxCell>
        <mxCell id="Z2-DFWVG9txQfcwxgaRv-63" style="edgeStyle=orthogonalEdgeStyle;rounded=0;orthogonalLoop=1;jettySize=auto;html=1;exitX=0.5;exitY=0.5;exitDx=0;exitDy=0;exitPerimeter=0;entryX=0;entryY=0;entryDx=0;entryDy=0;endArrow=none;endFill=0;" parent="1" source="Z2-DFWVG9txQfcwxgaRv-61" target="Z2-DFWVG9txQfcwxgaRv-62" edge="1">
          <mxGeometry relative="1" as="geometry" />
        </mxCell>
        <mxCell id="Z2-DFWVG9txQfcwxgaRv-61" value="Database" style="shape=umlActor;verticalLabelPosition=bottom;verticalAlign=top;html=1;outlineConnect=0;" parent="1" vertex="1">
          <mxGeometry x="240" y="1830" width="30" height="60" as="geometry" />
        </mxCell>
        <mxCell id="Xh_zwtsfEOE9FNI2SWYP-8" style="edgeStyle=orthogonalEdgeStyle;rounded=0;orthogonalLoop=1;jettySize=auto;html=1;exitX=1;exitY=1;exitDx=0;exitDy=0;entryX=0;entryY=0.5;entryDx=0;entryDy=0;dashed=1;" parent="1" source="Z2-DFWVG9txQfcwxgaRv-62" target="Xh_zwtsfEOE9FNI2SWYP-3" edge="1">
          <mxGeometry relative="1" as="geometry">
            <Array as="points">
              <mxPoint x="552" y="2030" />
            </Array>
          </mxGeometry>
        </mxCell>
        <mxCell id="Xh_zwtsfEOE9FNI2SWYP-11" value="&amp;lt;&amp;lt;include&amp;gt;&amp;gt;" style="edgeLabel;html=1;align=center;verticalAlign=middle;resizable=0;points=[];" parent="Xh_zwtsfEOE9FNI2SWYP-8" vertex="1" connectable="0">
          <mxGeometry x="-0.4491" y="-1" relative="1" as="geometry">
            <mxPoint as="offset" />
          </mxGeometry>
        </mxCell>
        <mxCell id="Xh_zwtsfEOE9FNI2SWYP-9" style="edgeStyle=orthogonalEdgeStyle;rounded=0;orthogonalLoop=1;jettySize=auto;html=1;exitX=1;exitY=0;exitDx=0;exitDy=0;entryX=0;entryY=0.5;entryDx=0;entryDy=0;dashed=1;" parent="1" source="Z2-DFWVG9txQfcwxgaRv-62" target="Xh_zwtsfEOE9FNI2SWYP-2" edge="1">
          <mxGeometry relative="1" as="geometry">
            <Array as="points">
              <mxPoint x="552" y="1870" />
            </Array>
          </mxGeometry>
        </mxCell>
        <mxCell id="Xh_zwtsfEOE9FNI2SWYP-10" value="&amp;lt;&amp;lt;include&amp;gt;&amp;gt;" style="edgeLabel;html=1;align=center;verticalAlign=middle;resizable=0;points=[];" parent="Xh_zwtsfEOE9FNI2SWYP-9" vertex="1" connectable="0">
          <mxGeometry x="-0.4993" y="-1" relative="1" as="geometry">
            <mxPoint as="offset" />
          </mxGeometry>
        </mxCell>
        <mxCell id="Z2-DFWVG9txQfcwxgaRv-62" value="Recupero password" style="ellipse;whiteSpace=wrap;html=1;" parent="1" vertex="1">
          <mxGeometry x="450" y="1910" width="120" height="80" as="geometry" />
        </mxCell>
        <mxCell id="Z2-DFWVG9txQfcwxgaRv-66" value="" style="endArrow=none;html=1;rounded=0;" parent="1" edge="1">
          <mxGeometry width="50" height="50" relative="1" as="geometry">
            <mxPoint x="8" y="2120" as="sourcePoint" />
            <mxPoint x="818" y="2120" as="targetPoint" />
          </mxGeometry>
        </mxCell>
        <mxCell id="Z2-DFWVG9txQfcwxgaRv-67" value="&lt;b&gt;DIAGRAMMA ATTIVITA&#39; RECUPERO/MODIFICA PASSWORD&lt;br&gt;&lt;/b&gt;" style="text;html=1;strokeColor=none;fillColor=none;align=center;verticalAlign=middle;whiteSpace=wrap;rounded=0;" parent="1" vertex="1">
          <mxGeometry x="334" y="2150" width="160" height="30" as="geometry" />
        </mxCell>
        <mxCell id="Z2-DFWVG9txQfcwxgaRv-74" style="edgeStyle=orthogonalEdgeStyle;rounded=0;orthogonalLoop=1;jettySize=auto;html=1;exitX=1;exitY=0.5;exitDx=0;exitDy=0;entryX=0;entryY=0.5;entryDx=0;entryDy=0;" parent="1" source="Z2-DFWVG9txQfcwxgaRv-68" target="Z2-DFWVG9txQfcwxgaRv-72" edge="1">
          <mxGeometry relative="1" as="geometry" />
        </mxCell>
        <mxCell id="Z2-DFWVG9txQfcwxgaRv-68" value="" style="ellipse;whiteSpace=wrap;html=1;aspect=fixed;fillColor=#000000;" parent="1" vertex="1">
          <mxGeometry x="70" y="2325" width="30" height="30" as="geometry" />
        </mxCell>
        <mxCell id="Z2-DFWVG9txQfcwxgaRv-69" value="" style="ellipse;whiteSpace=wrap;html=1;aspect=fixed;" parent="1" vertex="1">
          <mxGeometry x="70" y="2425" width="30" height="30" as="geometry" />
        </mxCell>
        <mxCell id="Z2-DFWVG9txQfcwxgaRv-70" value="" style="ellipse;whiteSpace=wrap;html=1;aspect=fixed;fillColor=#000000;" parent="1" vertex="1">
          <mxGeometry x="75" y="2430" width="20" height="20" as="geometry" />
        </mxCell>
        <mxCell id="Z2-DFWVG9txQfcwxgaRv-77" style="edgeStyle=orthogonalEdgeStyle;rounded=0;orthogonalLoop=1;jettySize=auto;html=1;exitX=1;exitY=0.5;exitDx=0;exitDy=0;entryX=0;entryY=0.5;entryDx=0;entryDy=0;" parent="1" source="Z2-DFWVG9txQfcwxgaRv-72" target="Z2-DFWVG9txQfcwxgaRv-76" edge="1">
          <mxGeometry relative="1" as="geometry" />
        </mxCell>
        <mxCell id="Z2-DFWVG9txQfcwxgaRv-72" value="Inserimento email utente" style="rounded=1;whiteSpace=wrap;html=1;" parent="1" vertex="1">
          <mxGeometry x="190" y="2320" width="80" height="40" as="geometry" />
        </mxCell>
        <mxCell id="Z2-DFWVG9txQfcwxgaRv-73" value="" style="rhombus;whiteSpace=wrap;html=1;" parent="1" vertex="1">
          <mxGeometry x="730" y="2200" width="30" height="30" as="geometry" />
        </mxCell>
        <mxCell id="Z2-DFWVG9txQfcwxgaRv-84" style="edgeStyle=orthogonalEdgeStyle;rounded=0;orthogonalLoop=1;jettySize=auto;html=1;exitX=0.5;exitY=1;exitDx=0;exitDy=0;entryX=0.5;entryY=0;entryDx=0;entryDy=0;" parent="1" source="Z2-DFWVG9txQfcwxgaRv-75" target="Z2-DFWVG9txQfcwxgaRv-83" edge="1">
          <mxGeometry relative="1" as="geometry" />
        </mxCell>
        <mxCell id="Z2-DFWVG9txQfcwxgaRv-75" value="Invio email da servizio esterno" style="rounded=1;whiteSpace=wrap;html=1;" parent="1" vertex="1">
          <mxGeometry x="710" y="2320" width="100" height="40" as="geometry" />
        </mxCell>
        <mxCell id="Z2-DFWVG9txQfcwxgaRv-79" style="edgeStyle=orthogonalEdgeStyle;rounded=0;orthogonalLoop=1;jettySize=auto;html=1;exitX=1;exitY=0.5;exitDx=0;exitDy=0;entryX=0;entryY=0.5;entryDx=0;entryDy=0;" parent="1" source="Z2-DFWVG9txQfcwxgaRv-76" target="Z2-DFWVG9txQfcwxgaRv-78" edge="1">
          <mxGeometry relative="1" as="geometry" />
        </mxCell>
        <mxCell id="Z2-DFWVG9txQfcwxgaRv-76" value="Controllo presenza email nel database" style="rounded=1;whiteSpace=wrap;html=1;" parent="1" vertex="1">
          <mxGeometry x="345" y="2320" width="105" height="40" as="geometry" />
        </mxCell>
        <mxCell id="Z2-DFWVG9txQfcwxgaRv-80" value="Controllo non superato" style="edgeStyle=orthogonalEdgeStyle;rounded=0;orthogonalLoop=1;jettySize=auto;html=1;exitX=0.5;exitY=0;exitDx=0;exitDy=0;entryX=0.5;entryY=0;entryDx=0;entryDy=0;" parent="1" source="Z2-DFWVG9txQfcwxgaRv-78" target="Z2-DFWVG9txQfcwxgaRv-72" edge="1">
          <mxGeometry relative="1" as="geometry">
            <Array as="points">
              <mxPoint x="520" y="2270" />
              <mxPoint x="230" y="2270" />
            </Array>
          </mxGeometry>
        </mxCell>
        <mxCell id="Z2-DFWVG9txQfcwxgaRv-81" value="Controllo superato" style="edgeStyle=orthogonalEdgeStyle;rounded=0;orthogonalLoop=1;jettySize=auto;html=1;exitX=1;exitY=0.5;exitDx=0;exitDy=0;entryX=0;entryY=0.5;entryDx=0;entryDy=0;" parent="1" source="Z2-DFWVG9txQfcwxgaRv-78" target="Z2-DFWVG9txQfcwxgaRv-75" edge="1">
          <mxGeometry relative="1" as="geometry">
            <Array as="points">
              <mxPoint x="670" y="2340" />
              <mxPoint x="670" y="2340" />
            </Array>
          </mxGeometry>
        </mxCell>
        <mxCell id="Z2-DFWVG9txQfcwxgaRv-78" value="" style="rhombus;whiteSpace=wrap;html=1;" parent="1" vertex="1">
          <mxGeometry x="505" y="2325" width="30" height="30" as="geometry" />
        </mxCell>
        <mxCell id="Z2-DFWVG9txQfcwxgaRv-82" value="" style="rounded=1;whiteSpace=wrap;html=1;" parent="1" vertex="1">
          <mxGeometry x="600" y="2190" width="105" height="40" as="geometry" />
        </mxCell>
        <mxCell id="Z2-DFWVG9txQfcwxgaRv-86" style="edgeStyle=orthogonalEdgeStyle;rounded=0;orthogonalLoop=1;jettySize=auto;html=1;exitX=0;exitY=0.5;exitDx=0;exitDy=0;entryX=1;entryY=0.5;entryDx=0;entryDy=0;" parent="1" source="Z2-DFWVG9txQfcwxgaRv-83" target="Z2-DFWVG9txQfcwxgaRv-85" edge="1">
          <mxGeometry relative="1" as="geometry" />
        </mxCell>
        <mxCell id="Z2-DFWVG9txQfcwxgaRv-83" value="Inserimento nuova password" style="rounded=1;whiteSpace=wrap;html=1;" parent="1" vertex="1">
          <mxGeometry x="707.5" y="2420" width="105" height="40" as="geometry" />
        </mxCell>
        <mxCell id="Z2-DFWVG9txQfcwxgaRv-88" style="edgeStyle=orthogonalEdgeStyle;rounded=0;orthogonalLoop=1;jettySize=auto;html=1;exitX=0;exitY=0.5;exitDx=0;exitDy=0;entryX=1;entryY=0.5;entryDx=0;entryDy=0;" parent="1" source="Z2-DFWVG9txQfcwxgaRv-85" target="Z2-DFWVG9txQfcwxgaRv-87" edge="1">
          <mxGeometry relative="1" as="geometry" />
        </mxCell>
        <mxCell id="Z2-DFWVG9txQfcwxgaRv-85" value="Controllo efficacia password" style="rounded=1;whiteSpace=wrap;html=1;" parent="1" vertex="1">
          <mxGeometry x="571" y="2420" width="105" height="40" as="geometry" />
        </mxCell>
        <mxCell id="Z2-DFWVG9txQfcwxgaRv-89" value="Controllo non superato" style="edgeStyle=orthogonalEdgeStyle;rounded=0;orthogonalLoop=1;jettySize=auto;html=1;exitX=0.5;exitY=1;exitDx=0;exitDy=0;entryX=0.5;entryY=1;entryDx=0;entryDy=0;" parent="1" source="Z2-DFWVG9txQfcwxgaRv-87" target="Z2-DFWVG9txQfcwxgaRv-83" edge="1">
          <mxGeometry relative="1" as="geometry">
            <Array as="points">
              <mxPoint x="520" y="2520" />
              <mxPoint x="760" y="2520" />
            </Array>
          </mxGeometry>
        </mxCell>
        <mxCell id="Z2-DFWVG9txQfcwxgaRv-91" value="Controllo superato" style="edgeStyle=orthogonalEdgeStyle;rounded=0;orthogonalLoop=1;jettySize=auto;html=1;exitX=0;exitY=0.5;exitDx=0;exitDy=0;entryX=1;entryY=0.5;entryDx=0;entryDy=0;" parent="1" source="Z2-DFWVG9txQfcwxgaRv-87" target="Z2-DFWVG9txQfcwxgaRv-90" edge="1">
          <mxGeometry relative="1" as="geometry" />
        </mxCell>
        <mxCell id="Z2-DFWVG9txQfcwxgaRv-87" value="" style="rhombus;whiteSpace=wrap;html=1;" parent="1" vertex="1">
          <mxGeometry x="505" y="2425" width="30" height="30" as="geometry" />
        </mxCell>
        <mxCell id="Z2-DFWVG9txQfcwxgaRv-93" style="edgeStyle=orthogonalEdgeStyle;rounded=0;orthogonalLoop=1;jettySize=auto;html=1;exitX=0;exitY=0.5;exitDx=0;exitDy=0;entryX=1;entryY=0.5;entryDx=0;entryDy=0;" parent="1" source="Z2-DFWVG9txQfcwxgaRv-90" target="Z2-DFWVG9txQfcwxgaRv-70" edge="1">
          <mxGeometry relative="1" as="geometry" />
        </mxCell>
        <mxCell id="Z2-DFWVG9txQfcwxgaRv-90" value="Aggiornamento database" style="rounded=1;whiteSpace=wrap;html=1;" parent="1" vertex="1">
          <mxGeometry x="180" y="2420" width="121" height="40" as="geometry" />
        </mxCell>
        <mxCell id="Z2-DFWVG9txQfcwxgaRv-94" value="" style="endArrow=none;html=1;rounded=0;" parent="1" edge="1">
          <mxGeometry width="50" height="50" relative="1" as="geometry">
            <mxPoint x="8" y="2770" as="sourcePoint" />
            <mxPoint x="818" y="2770" as="targetPoint" />
          </mxGeometry>
        </mxCell>
        <mxCell id="Z2-DFWVG9txQfcwxgaRv-95" style="edgeStyle=orthogonalEdgeStyle;rounded=0;orthogonalLoop=1;jettySize=auto;html=1;exitX=0.5;exitY=0.5;exitDx=0;exitDy=0;exitPerimeter=0;entryX=0;entryY=0.5;entryDx=0;entryDy=0;endArrow=none;endFill=0;" parent="1" source="Z2-DFWVG9txQfcwxgaRv-96" target="CE-2ABupStHAEgcUpKlA-10" edge="1">
          <mxGeometry relative="1" as="geometry">
            <mxPoint x="199.99999999999977" y="3020" as="targetPoint" />
          </mxGeometry>
        </mxCell>
        <mxCell id="Z2-DFWVG9txQfcwxgaRv-96" value="Utente" style="shape=umlActor;verticalLabelPosition=bottom;verticalAlign=top;html=1;outlineConnect=0;" parent="1" vertex="1">
          <mxGeometry x="130" y="2990" width="30" height="60" as="geometry" />
        </mxCell>
        <mxCell id="Z2-DFWVG9txQfcwxgaRv-98" value="Sistema invio email" style="shape=umlActor;verticalLabelPosition=bottom;verticalAlign=top;html=1;outlineConnect=0;" parent="1" vertex="1">
          <mxGeometry x="652.5" y="3080" width="30" height="60" as="geometry" />
        </mxCell>
        <mxCell id="CE-2ABupStHAEgcUpKlA-16" style="edgeStyle=orthogonalEdgeStyle;rounded=0;orthogonalLoop=1;jettySize=auto;html=1;exitX=0.5;exitY=0.5;exitDx=0;exitDy=0;exitPerimeter=0;entryX=1;entryY=0.5;entryDx=0;entryDy=0;endArrow=none;endFill=0;" parent="1" source="Z2-DFWVG9txQfcwxgaRv-100" target="CE-2ABupStHAEgcUpKlA-13" edge="1">
          <mxGeometry relative="1" as="geometry" />
        </mxCell>
        <mxCell id="CE-2ABupStHAEgcUpKlA-30" style="edgeStyle=orthogonalEdgeStyle;rounded=0;orthogonalLoop=1;jettySize=auto;html=1;exitX=0.5;exitY=0.5;exitDx=0;exitDy=0;exitPerimeter=0;entryX=1;entryY=0.5;entryDx=0;entryDy=0;endArrow=none;endFill=0;" parent="1" source="Z2-DFWVG9txQfcwxgaRv-100" target="CE-2ABupStHAEgcUpKlA-12" edge="1">
          <mxGeometry relative="1" as="geometry">
            <Array as="points">
              <mxPoint x="720" y="2922" />
              <mxPoint x="720" y="3020" />
            </Array>
          </mxGeometry>
        </mxCell>
        <mxCell id="Z2-DFWVG9txQfcwxgaRv-100" value="Database" style="shape=umlActor;verticalLabelPosition=bottom;verticalAlign=top;html=1;outlineConnect=0;" parent="1" vertex="1">
          <mxGeometry x="652.5" y="2892" width="30" height="60" as="geometry" />
        </mxCell>
        <mxCell id="Z2-DFWVG9txQfcwxgaRv-102" value="&lt;b&gt;MODIFICA PASSWORD&lt;br&gt;&lt;/b&gt;" style="text;html=1;strokeColor=none;fillColor=none;align=center;verticalAlign=middle;whiteSpace=wrap;rounded=0;" parent="1" vertex="1">
          <mxGeometry x="335" y="2790" width="160" height="30" as="geometry" />
        </mxCell>
        <mxCell id="Z2-DFWVG9txQfcwxgaRv-104" value="" style="endArrow=none;html=1;rounded=0;" parent="1" edge="1">
          <mxGeometry width="50" height="50" relative="1" as="geometry">
            <mxPoint y="3230" as="sourcePoint" />
            <mxPoint x="810" y="3230" as="targetPoint" />
          </mxGeometry>
        </mxCell>
        <mxCell id="mxfJlP3PRgjQnhU5pGyH-1" value="" style="endArrow=none;html=1;rounded=0;" parent="1" edge="1">
          <mxGeometry width="50" height="50" relative="1" as="geometry">
            <mxPoint x="5" y="3440" as="sourcePoint" />
            <mxPoint x="815" y="3440" as="targetPoint" />
          </mxGeometry>
        </mxCell>
        <mxCell id="mxfJlP3PRgjQnhU5pGyH-4" style="edgeStyle=orthogonalEdgeStyle;rounded=0;orthogonalLoop=1;jettySize=auto;html=1;exitX=0.5;exitY=0.5;exitDx=0;exitDy=0;exitPerimeter=0;entryX=0.5;entryY=0;entryDx=0;entryDy=0;endArrow=none;endFill=0;" parent="1" source="ry19TxHsjQSOlU5QSnlt-1" target="mxfJlP3PRgjQnhU5pGyH-3" edge="1">
          <mxGeometry relative="1" as="geometry">
            <mxPoint x="525" y="3610" as="targetPoint" />
            <Array as="points">
              <mxPoint x="430" y="3520" />
            </Array>
          </mxGeometry>
        </mxCell>
        <mxCell id="CE-2ABupStHAEgcUpKlA-24" style="edgeStyle=orthogonalEdgeStyle;rounded=0;orthogonalLoop=1;jettySize=auto;html=1;exitX=0.5;exitY=0.5;exitDx=0;exitDy=0;exitPerimeter=0;entryX=0;entryY=0.5;entryDx=0;entryDy=0;endArrow=none;endFill=0;" parent="1" source="ry19TxHsjQSOlU5QSnlt-1" target="CE-2ABupStHAEgcUpKlA-23" edge="1">
          <mxGeometry relative="1" as="geometry">
            <Array as="points">
              <mxPoint x="100" y="3520" />
              <mxPoint x="100" y="3650" />
            </Array>
          </mxGeometry>
        </mxCell>
        <mxCell id="ry19TxHsjQSOlU5QSnlt-1" value="Utente non autenticato" style="shape=umlActor;verticalLabelPosition=bottom;verticalAlign=top;html=1;outlineConnect=0;" parent="1" vertex="1">
          <mxGeometry x="249" y="3490" width="30" height="60" as="geometry" />
        </mxCell>
        <mxCell id="mxfJlP3PRgjQnhU5pGyH-5" style="edgeStyle=orthogonalEdgeStyle;rounded=0;orthogonalLoop=1;jettySize=auto;html=1;exitX=0.5;exitY=0.5;exitDx=0;exitDy=0;exitPerimeter=0;entryX=0.5;entryY=1;entryDx=0;entryDy=0;endArrow=none;endFill=0;" parent="1" source="ry19TxHsjQSOlU5QSnlt-4" target="mxfJlP3PRgjQnhU5pGyH-3" edge="1">
          <mxGeometry relative="1" as="geometry" />
        </mxCell>
        <mxCell id="CE-2ABupStHAEgcUpKlA-27" style="edgeStyle=orthogonalEdgeStyle;rounded=0;orthogonalLoop=1;jettySize=auto;html=1;exitX=0.5;exitY=0.5;exitDx=0;exitDy=0;exitPerimeter=0;entryX=0;entryY=0.5;entryDx=0;entryDy=0;endArrow=none;endFill=0;" parent="1" source="ry19TxHsjQSOlU5QSnlt-4" target="CE-2ABupStHAEgcUpKlA-23" edge="1">
          <mxGeometry relative="1" as="geometry">
            <Array as="points">
              <mxPoint x="100" y="3770" />
              <mxPoint x="100" y="3650" />
            </Array>
          </mxGeometry>
        </mxCell>
        <mxCell id="ry19TxHsjQSOlU5QSnlt-4" value="Cliente" style="shape=umlActor;verticalLabelPosition=bottom;verticalAlign=top;html=1;outlineConnect=0;" parent="1" vertex="1">
          <mxGeometry x="249" y="3740" width="30" height="60" as="geometry" />
        </mxCell>
        <mxCell id="mxfJlP3PRgjQnhU5pGyH-10" value="&amp;lt;&amp;lt;include&amp;gt;&amp;gt;" style="edgeStyle=orthogonalEdgeStyle;rounded=0;orthogonalLoop=1;jettySize=auto;html=1;exitX=1;exitY=0.5;exitDx=0;exitDy=0;entryX=0;entryY=0.5;entryDx=0;entryDy=0;dashed=1;" parent="1" source="mxfJlP3PRgjQnhU5pGyH-3" target="mxfJlP3PRgjQnhU5pGyH-7" edge="1">
          <mxGeometry relative="1" as="geometry" />
        </mxCell>
        <mxCell id="y0pF3mSitlNuGOX3nc8Y-10" value="&amp;lt;&amp;lt;include&amp;gt;&amp;gt;" style="edgeStyle=orthogonalEdgeStyle;rounded=0;orthogonalLoop=1;jettySize=auto;html=1;exitX=1;exitY=1;exitDx=0;exitDy=0;entryX=0;entryY=0.5;entryDx=0;entryDy=0;dashed=1;" parent="1" source="mxfJlP3PRgjQnhU5pGyH-3" target="y0pF3mSitlNuGOX3nc8Y-7" edge="1">
          <mxGeometry relative="1" as="geometry">
            <Array as="points">
              <mxPoint x="472" y="3790" />
            </Array>
          </mxGeometry>
        </mxCell>
        <mxCell id="y0pF3mSitlNuGOX3nc8Y-11" value="&amp;lt;&amp;lt;include&amp;gt;&amp;gt;" style="edgeStyle=orthogonalEdgeStyle;rounded=0;orthogonalLoop=1;jettySize=auto;html=1;exitX=1;exitY=0;exitDx=0;exitDy=0;entryX=0;entryY=0.5;entryDx=0;entryDy=0;dashed=1;" parent="1" source="mxfJlP3PRgjQnhU5pGyH-3" target="y0pF3mSitlNuGOX3nc8Y-8" edge="1">
          <mxGeometry relative="1" as="geometry">
            <Array as="points">
              <mxPoint x="472" y="3500" />
            </Array>
          </mxGeometry>
        </mxCell>
        <mxCell id="mxfJlP3PRgjQnhU5pGyH-3" value="Ricerca" style="ellipse;whiteSpace=wrap;html=1;" parent="1" vertex="1">
          <mxGeometry x="370" y="3610" width="120" height="80" as="geometry" />
        </mxCell>
        <mxCell id="mxfJlP3PRgjQnhU5pGyH-7" value="Inserimento&lt;br&gt;periodo" style="ellipse;whiteSpace=wrap;html=1;" parent="1" vertex="1">
          <mxGeometry x="615" y="3610" width="120" height="80" as="geometry" />
        </mxCell>
        <mxCell id="mxfJlP3PRgjQnhU5pGyH-15" value="" style="endArrow=none;html=1;rounded=0;" parent="1" edge="1">
          <mxGeometry width="50" height="50" relative="1" as="geometry">
            <mxPoint x="10" y="3860" as="sourcePoint" />
            <mxPoint x="820" y="3860" as="targetPoint" />
          </mxGeometry>
        </mxCell>
        <mxCell id="mxfJlP3PRgjQnhU5pGyH-21" style="edgeStyle=orthogonalEdgeStyle;rounded=0;orthogonalLoop=1;jettySize=auto;html=1;exitX=0.5;exitY=0.5;exitDx=0;exitDy=0;exitPerimeter=0;entryX=0;entryY=1;entryDx=0;entryDy=0;endArrow=none;endFill=0;" parent="1" source="mxfJlP3PRgjQnhU5pGyH-17" edge="1">
          <mxGeometry relative="1" as="geometry">
            <Array as="points">
              <mxPoint x="885" y="4069.7200000000003" />
              <mxPoint x="1058" y="4069.7200000000003" />
            </Array>
            <mxPoint x="1057.5735931288073" y="3990.0042712474615" as="targetPoint" />
          </mxGeometry>
        </mxCell>
        <mxCell id="mxfJlP3PRgjQnhU5pGyH-17" value="Cliente" style="shape=umlActor;verticalLabelPosition=bottom;verticalAlign=top;html=1;outlineConnect=0;" parent="1" vertex="1">
          <mxGeometry x="870" y="4039.7200000000003" width="30" height="60" as="geometry" />
        </mxCell>
        <mxCell id="mxfJlP3PRgjQnhU5pGyH-52" value="&amp;lt;&amp;lt;include&amp;gt;&amp;gt;" style="edgeStyle=orthogonalEdgeStyle;rounded=0;orthogonalLoop=1;jettySize=auto;html=1;exitX=0.669;exitY=0.988;exitDx=0;exitDy=0;entryX=0;entryY=0.5;entryDx=0;entryDy=0;dashed=1;exitPerimeter=0;" parent="1" source="mxfJlP3PRgjQnhU5pGyH-20" target="mxfJlP3PRgjQnhU5pGyH-30" edge="1">
          <mxGeometry x="0.2572" relative="1" as="geometry">
            <Array as="points">
              <mxPoint x="1080" y="4250" />
            </Array>
            <mxPoint as="offset" />
          </mxGeometry>
        </mxCell>
        <mxCell id="y0pF3mSitlNuGOX3nc8Y-14" value="&amp;lt;&amp;lt;include&amp;gt;&amp;gt;" style="edgeStyle=orthogonalEdgeStyle;rounded=0;orthogonalLoop=1;jettySize=auto;html=1;entryX=0;entryY=0.5;entryDx=0;entryDy=0;dashed=1;exitX=0.661;exitY=0.031;exitDx=0;exitDy=0;exitPerimeter=0;" parent="1" source="mxfJlP3PRgjQnhU5pGyH-20" target="mxfJlP3PRgjQnhU5pGyH-46" edge="1">
          <mxGeometry x="0.2299" relative="1" as="geometry">
            <mxPoint x="1310" y="3870" as="sourcePoint" />
            <Array as="points">
              <mxPoint x="1079" y="3770" />
            </Array>
            <mxPoint as="offset" />
          </mxGeometry>
        </mxCell>
        <mxCell id="DWLaBxBilSsCNJHHFzsS-6" style="edgeStyle=orthogonalEdgeStyle;rounded=0;orthogonalLoop=1;jettySize=auto;html=1;entryX=0;entryY=0.5;entryDx=0;entryDy=0;exitX=0.977;exitY=0.349;exitDx=0;exitDy=0;exitPerimeter=0;dashed=1;" parent="1" source="mxfJlP3PRgjQnhU5pGyH-20" target="DWLaBxBilSsCNJHHFzsS-2" edge="1">
          <mxGeometry relative="1" as="geometry" />
        </mxCell>
        <mxCell id="DWLaBxBilSsCNJHHFzsS-8" value="&amp;lt;&amp;lt;include&amp;gt;&amp;gt;" style="edgeLabel;html=1;align=center;verticalAlign=middle;resizable=0;points=[];" parent="DWLaBxBilSsCNJHHFzsS-6" connectable="0" vertex="1">
          <mxGeometry x="0.2157" y="-2" relative="1" as="geometry">
            <mxPoint y="38" as="offset" />
          </mxGeometry>
        </mxCell>
        <mxCell id="mxfJlP3PRgjQnhU5pGyH-20" value="Prenotazione" style="ellipse;whiteSpace=wrap;html=1;" parent="1" vertex="1">
          <mxGeometry x="1000" y="3962" width="120" height="80" as="geometry" />
        </mxCell>
        <mxCell id="mxfJlP3PRgjQnhU5pGyH-27" style="edgeStyle=orthogonalEdgeStyle;rounded=0;orthogonalLoop=1;jettySize=auto;html=1;entryX=1;entryY=0.5;entryDx=0;entryDy=0;endArrow=none;endFill=0;exitX=0.5;exitY=0.5;exitDx=0;exitDy=0;exitPerimeter=0;" parent="1" source="mxfJlP3PRgjQnhU5pGyH-24" target="mxfJlP3PRgjQnhU5pGyH-30" edge="1">
          <mxGeometry relative="1" as="geometry">
            <Array as="points">
              <mxPoint x="1420" y="4260" />
              <mxPoint x="1420" y="4260" />
            </Array>
            <mxPoint x="1420" y="4230" as="sourcePoint" />
          </mxGeometry>
        </mxCell>
        <mxCell id="mxfJlP3PRgjQnhU5pGyH-24" value="Sistema esterno di pagamento" style="shape=umlActor;verticalLabelPosition=bottom;verticalAlign=top;html=1;outlineConnect=0;" parent="1" vertex="1">
          <mxGeometry x="1433" y="4230" width="30" height="60" as="geometry" />
        </mxCell>
        <mxCell id="mxfJlP3PRgjQnhU5pGyH-25" value="Inserimento dati personali" style="ellipse;whiteSpace=wrap;html=1;" parent="1" vertex="1">
          <mxGeometry x="1250" y="4110" width="120" height="80" as="geometry" />
        </mxCell>
        <mxCell id="mxfJlP3PRgjQnhU5pGyH-29" value="&lt;b&gt;PRENOTAZIONE E PAGAMENTO&lt;/b&gt;" style="text;html=1;strokeColor=none;fillColor=none;align=center;verticalAlign=middle;whiteSpace=wrap;rounded=0;" parent="1" vertex="1">
          <mxGeometry x="347" y="3870" width="158" height="30" as="geometry" />
        </mxCell>
        <mxCell id="mxfJlP3PRgjQnhU5pGyH-30" value="Pagamento" style="ellipse;whiteSpace=wrap;html=1;" parent="1" vertex="1">
          <mxGeometry x="1251" y="4210" width="120" height="80" as="geometry" />
        </mxCell>
        <mxCell id="mxfJlP3PRgjQnhU5pGyH-46" value="Scelta hotel" style="ellipse;whiteSpace=wrap;html=1;" parent="1" vertex="1">
          <mxGeometry x="1251" y="3730" width="120" height="80" as="geometry" />
        </mxCell>
        <mxCell id="SS0m3f73n02m4hr_4awN-12" style="edgeStyle=orthogonalEdgeStyle;rounded=0;orthogonalLoop=1;jettySize=auto;html=1;exitX=0.5;exitY=0.5;exitDx=0;exitDy=0;exitPerimeter=0;entryX=0;entryY=0.5;entryDx=0;entryDy=0;endArrow=none;endFill=0;" parent="1" source="SS0m3f73n02m4hr_4awN-10" target="SS0m3f73n02m4hr_4awN-11" edge="1">
          <mxGeometry relative="1" as="geometry" />
        </mxCell>
        <mxCell id="SS0m3f73n02m4hr_4awN-10" value="Cliente" style="shape=umlActor;verticalLabelPosition=bottom;verticalAlign=top;html=1;outlineConnect=0;" parent="1" vertex="1">
          <mxGeometry x="145" y="4710" width="30" height="60" as="geometry" />
        </mxCell>
        <mxCell id="SS0m3f73n02m4hr_4awN-11" value="Mostrare impostazioni" style="ellipse;whiteSpace=wrap;html=1;" parent="1" vertex="1">
          <mxGeometry x="213" y="4700" width="120" height="80" as="geometry" />
        </mxCell>
        <mxCell id="SS0m3f73n02m4hr_4awN-19" value="&amp;lt;&amp;lt;extend&amp;gt;&amp;gt;" style="edgeStyle=orthogonalEdgeStyle;rounded=0;orthogonalLoop=1;jettySize=auto;html=1;exitX=0;exitY=0.5;exitDx=0;exitDy=0;entryX=1;entryY=0;entryDx=0;entryDy=0;dashed=1;" parent="1" source="SS0m3f73n02m4hr_4awN-13" target="SS0m3f73n02m4hr_4awN-11" edge="1">
          <mxGeometry x="0.0719" relative="1" as="geometry">
            <mxPoint as="offset" />
          </mxGeometry>
        </mxCell>
        <mxCell id="SS0m3f73n02m4hr_4awN-13" value="&amp;nbsp;Log out" style="ellipse;whiteSpace=wrap;html=1;" parent="1" vertex="1">
          <mxGeometry x="432.5" y="4640" width="120" height="80" as="geometry" />
        </mxCell>
        <mxCell id="SS0m3f73n02m4hr_4awN-20" value="&amp;lt;&amp;lt;extend&amp;gt;&amp;gt;" style="edgeStyle=orthogonalEdgeStyle;rounded=0;orthogonalLoop=1;jettySize=auto;html=1;exitX=0;exitY=0.5;exitDx=0;exitDy=0;dashed=1;entryX=0.5;entryY=0;entryDx=0;entryDy=0;" parent="1" source="SS0m3f73n02m4hr_4awN-14" target="SS0m3f73n02m4hr_4awN-11" edge="1">
          <mxGeometry relative="1" as="geometry">
            <Array as="points">
              <mxPoint x="273" y="4580" />
            </Array>
            <mxPoint x="240" y="4640" as="targetPoint" />
          </mxGeometry>
        </mxCell>
        <mxCell id="SS0m3f73n02m4hr_4awN-14" value="Scelta lingua di sistema" style="ellipse;whiteSpace=wrap;html=1;" parent="1" vertex="1">
          <mxGeometry x="432.5" y="4540" width="120" height="80" as="geometry" />
        </mxCell>
        <mxCell id="SS0m3f73n02m4hr_4awN-21" value="&amp;lt;&amp;lt;extend&amp;gt;&amp;gt;" style="edgeStyle=orthogonalEdgeStyle;rounded=0;orthogonalLoop=1;jettySize=auto;html=1;exitX=0;exitY=0.5;exitDx=0;exitDy=0;entryX=1;entryY=1;entryDx=0;entryDy=0;dashed=1;" parent="1" source="SS0m3f73n02m4hr_4awN-15" target="SS0m3f73n02m4hr_4awN-11" edge="1">
          <mxGeometry x="0.0294" relative="1" as="geometry">
            <mxPoint as="offset" />
          </mxGeometry>
        </mxCell>
        <mxCell id="SS0m3f73n02m4hr_4awN-15" value="Cancellazione account" style="ellipse;whiteSpace=wrap;html=1;" parent="1" vertex="1">
          <mxGeometry x="432.5" y="4750" width="120" height="80" as="geometry" />
        </mxCell>
        <mxCell id="SS0m3f73n02m4hr_4awN-28" value="&amp;lt;&amp;lt;extend&amp;gt;&amp;gt;" style="edgeStyle=orthogonalEdgeStyle;rounded=0;orthogonalLoop=1;jettySize=auto;html=1;exitX=0;exitY=0.5;exitDx=0;exitDy=0;entryX=1;entryY=0.5;entryDx=0;entryDy=0;dashed=1;" parent="1" source="SS0m3f73n02m4hr_4awN-22" target="SS0m3f73n02m4hr_4awN-13" edge="1">
          <mxGeometry relative="1" as="geometry" />
        </mxCell>
        <mxCell id="SS0m3f73n02m4hr_4awN-22" value="&amp;nbsp;Log in" style="ellipse;whiteSpace=wrap;html=1;" parent="1" vertex="1">
          <mxGeometry x="652.5" y="4640" width="120" height="80" as="geometry" />
        </mxCell>
        <mxCell id="SS0m3f73n02m4hr_4awN-27" value="&amp;lt;&amp;lt;extend&amp;gt;&amp;gt;" style="edgeStyle=orthogonalEdgeStyle;rounded=0;orthogonalLoop=1;jettySize=auto;html=1;exitX=0;exitY=0.5;exitDx=0;exitDy=0;entryX=0.5;entryY=1;entryDx=0;entryDy=0;dashed=1;" parent="1" source="SS0m3f73n02m4hr_4awN-26" target="SS0m3f73n02m4hr_4awN-11" edge="1">
          <mxGeometry relative="1" as="geometry" />
        </mxCell>
        <mxCell id="SS0m3f73n02m4hr_4awN-26" value="Modifica password" style="ellipse;whiteSpace=wrap;html=1;" parent="1" vertex="1">
          <mxGeometry x="432.5" y="4860" width="120" height="80" as="geometry" />
        </mxCell>
        <mxCell id="SS0m3f73n02m4hr_4awN-31" style="edgeStyle=orthogonalEdgeStyle;rounded=0;orthogonalLoop=1;jettySize=auto;html=1;entryX=1;entryY=0.5;entryDx=0;entryDy=0;endArrow=none;endFill=0;exitX=0.5;exitY=0.5;exitDx=0;exitDy=0;exitPerimeter=0;" parent="1" source="SS0m3f73n02m4hr_4awN-29" target="SS0m3f73n02m4hr_4awN-15" edge="1">
          <mxGeometry relative="1" as="geometry">
            <mxPoint x="670" y="4840" as="sourcePoint" />
            <Array as="points" />
          </mxGeometry>
        </mxCell>
        <mxCell id="SS0m3f73n02m4hr_4awN-32" style="edgeStyle=orthogonalEdgeStyle;rounded=0;orthogonalLoop=1;jettySize=auto;html=1;entryX=1;entryY=0.5;entryDx=0;entryDy=0;endArrow=none;endFill=0;exitX=0.5;exitY=0.5;exitDx=0;exitDy=0;exitPerimeter=0;" parent="1" source="SS0m3f73n02m4hr_4awN-29" target="SS0m3f73n02m4hr_4awN-26" edge="1">
          <mxGeometry relative="1" as="geometry">
            <Array as="points">
              <mxPoint x="713" y="4900" />
            </Array>
            <mxPoint x="713" y="4900" as="sourcePoint" />
          </mxGeometry>
        </mxCell>
        <mxCell id="CE-2ABupStHAEgcUpKlA-62" style="edgeStyle=orthogonalEdgeStyle;rounded=0;orthogonalLoop=1;jettySize=auto;html=1;exitX=0.5;exitY=0;exitDx=0;exitDy=0;exitPerimeter=0;entryX=0.5;entryY=1;entryDx=0;entryDy=0;endArrow=none;endFill=0;" parent="1" source="SS0m3f73n02m4hr_4awN-29" target="SS0m3f73n02m4hr_4awN-22" edge="1">
          <mxGeometry relative="1" as="geometry" />
        </mxCell>
        <mxCell id="SS0m3f73n02m4hr_4awN-29" value="Database" style="shape=umlActor;verticalLabelPosition=bottom;verticalAlign=top;html=1;outlineConnect=0;" parent="1" vertex="1">
          <mxGeometry x="697.5" y="4760" width="30" height="60" as="geometry" />
        </mxCell>
        <mxCell id="SS0m3f73n02m4hr_4awN-33" style="edgeStyle=orthogonalEdgeStyle;rounded=0;orthogonalLoop=1;jettySize=auto;html=1;exitX=0.5;exitY=0.5;exitDx=0;exitDy=0;exitPerimeter=0;entryX=0.5;entryY=1;entryDx=0;entryDy=0;endArrow=none;endFill=0;" parent="1" source="SS0m3f73n02m4hr_4awN-30" target="SS0m3f73n02m4hr_4awN-26" edge="1">
          <mxGeometry relative="1" as="geometry">
            <Array as="points">
              <mxPoint x="490" y="4950" />
            </Array>
          </mxGeometry>
        </mxCell>
        <mxCell id="SS0m3f73n02m4hr_4awN-30" value="Sistema invio email&lt;br&gt;" style="shape=umlActor;verticalLabelPosition=bottom;verticalAlign=top;html=1;outlineConnect=0;" parent="1" vertex="1">
          <mxGeometry x="697.5" y="4920" width="30" height="60" as="geometry" />
        </mxCell>
        <mxCell id="CE-2ABupStHAEgcUpKlA-49" style="edgeStyle=orthogonalEdgeStyle;rounded=0;orthogonalLoop=1;jettySize=auto;html=1;exitX=1;exitY=0.3333333333333333;exitDx=0;exitDy=0;exitPerimeter=0;endArrow=none;endFill=0;entryX=0.076;entryY=0.247;entryDx=0;entryDy=0;entryPerimeter=0;" parent="1" source="oRxd7dk-FcgTsgBfvTRa-4" target="oRxd7dk-FcgTsgBfvTRa-12" edge="1">
          <mxGeometry relative="1" as="geometry">
            <Array as="points" />
            <mxPoint x="160" y="5430" as="targetPoint" />
          </mxGeometry>
        </mxCell>
        <mxCell id="CE-2ABupStHAEgcUpKlA-50" style="edgeStyle=orthogonalEdgeStyle;rounded=0;orthogonalLoop=1;jettySize=auto;html=1;exitX=0.5;exitY=0.5;exitDx=0;exitDy=0;exitPerimeter=0;entryX=0;entryY=0.5;entryDx=0;entryDy=0;endArrow=none;endFill=0;" parent="1" source="oRxd7dk-FcgTsgBfvTRa-4" target="CE-2ABupStHAEgcUpKlA-47" edge="1">
          <mxGeometry relative="1" as="geometry">
            <Array as="points">
              <mxPoint x="50" y="5450" />
              <mxPoint x="50" y="5560" />
            </Array>
          </mxGeometry>
        </mxCell>
        <mxCell id="CE-2ABupStHAEgcUpKlA-54" style="orthogonalLoop=1;jettySize=auto;html=1;exitX=0.5;exitY=0;exitDx=0;exitDy=0;exitPerimeter=0;entryX=0;entryY=0.5;entryDx=0;entryDy=0;endArrow=none;endFill=0;rounded=0;edgeStyle=orthogonalEdgeStyle;elbow=vertical;" parent="1" source="oRxd7dk-FcgTsgBfvTRa-4" target="oRxd7dk-FcgTsgBfvTRa-5" edge="1">
          <mxGeometry relative="1" as="geometry" />
        </mxCell>
        <mxCell id="CE-2ABupStHAEgcUpKlA-55" style="edgeStyle=orthogonalEdgeStyle;rounded=0;orthogonalLoop=1;jettySize=auto;html=1;entryX=0;entryY=0.5;entryDx=0;entryDy=0;endArrow=none;endFill=0;exitX=1;exitY=1;exitDx=0;exitDy=0;exitPerimeter=0;" parent="1" source="oRxd7dk-FcgTsgBfvTRa-4" target="oRxd7dk-FcgTsgBfvTRa-9" edge="1">
          <mxGeometry relative="1" as="geometry">
            <Array as="points">
              <mxPoint x="20" y="5480" />
              <mxPoint x="20" y="5670" />
            </Array>
            <mxPoint x="90" y="5480" as="sourcePoint" />
          </mxGeometry>
        </mxCell>
        <mxCell id="oRxd7dk-FcgTsgBfvTRa-4" value="Gestore" style="shape=umlActor;verticalLabelPosition=bottom;verticalAlign=top;html=1;outlineConnect=0;" parent="1" vertex="1">
          <mxGeometry x="-70" y="5420" width="30" height="60" as="geometry" />
        </mxCell>
        <mxCell id="oRxd7dk-FcgTsgBfvTRa-5" value="Creazione offerte" style="ellipse;whiteSpace=wrap;html=1;" parent="1" vertex="1">
          <mxGeometry x="204.5" y="5190" width="120" height="80" as="geometry" />
        </mxCell>
        <mxCell id="oRxd7dk-FcgTsgBfvTRa-9" value="Visualizzazione commenti" style="ellipse;whiteSpace=wrap;html=1;" parent="1" vertex="1">
          <mxGeometry x="203.5" y="5630" width="120" height="80" as="geometry" />
        </mxCell>
        <mxCell id="y0pF3mSitlNuGOX3nc8Y-29" value="&amp;lt;&amp;lt;include&amp;gt;&amp;gt;" style="edgeStyle=orthogonalEdgeStyle;rounded=0;orthogonalLoop=1;jettySize=auto;html=1;exitX=0.5;exitY=0;exitDx=0;exitDy=0;entryX=0.5;entryY=1;entryDx=0;entryDy=0;dashed=1;" parent="1" source="oRxd7dk-FcgTsgBfvTRa-12" target="oRxd7dk-FcgTsgBfvTRa-19" edge="1">
          <mxGeometry relative="1" as="geometry" />
        </mxCell>
        <mxCell id="oRxd7dk-FcgTsgBfvTRa-12" value="Gestione hotel" style="ellipse;whiteSpace=wrap;html=1;" parent="1" vertex="1">
          <mxGeometry x="203.5" y="5420" width="120" height="80" as="geometry" />
        </mxCell>
        <mxCell id="oRxd7dk-FcgTsgBfvTRa-19" value="Approvazione&amp;nbsp;" style="ellipse;whiteSpace=wrap;html=1;" parent="1" vertex="1">
          <mxGeometry x="203.5" y="5290" width="120" height="80" as="geometry" />
        </mxCell>
        <mxCell id="oRxd7dk-FcgTsgBfvTRa-21" value="Amministratore sito" style="shape=umlActor;verticalLabelPosition=bottom;verticalAlign=top;html=1;outlineConnect=0;" parent="1" vertex="1">
          <mxGeometry x="400" y="5300" width="30" height="60" as="geometry" />
        </mxCell>
        <mxCell id="CE-2ABupStHAEgcUpKlA-9" style="edgeStyle=orthogonalEdgeStyle;rounded=0;orthogonalLoop=1;jettySize=auto;html=1;exitX=0.5;exitY=0.5;exitDx=0;exitDy=0;exitPerimeter=0;entryX=0;entryY=0.5;entryDx=0;entryDy=0;endArrow=none;endFill=0;" parent="1" source="CE-2ABupStHAEgcUpKlA-8" target="Z2-DFWVG9txQfcwxgaRv-48" edge="1">
          <mxGeometry relative="1" as="geometry" />
        </mxCell>
        <mxCell id="CE-2ABupStHAEgcUpKlA-8" value="Database&amp;nbsp;" style="shape=umlActor;verticalLabelPosition=bottom;verticalAlign=top;html=1;" parent="1" vertex="1">
          <mxGeometry x="30" y="1620" width="30" height="60" as="geometry" />
        </mxCell>
        <mxCell id="CE-2ABupStHAEgcUpKlA-14" value="&amp;lt;&amp;lt;include&amp;gt;&amp;gt;" style="edgeStyle=orthogonalEdgeStyle;rounded=0;orthogonalLoop=1;jettySize=auto;html=1;exitX=0.5;exitY=0;exitDx=0;exitDy=0;entryX=0;entryY=0.5;entryDx=0;entryDy=0;dashed=1;" parent="1" source="CE-2ABupStHAEgcUpKlA-10" target="CE-2ABupStHAEgcUpKlA-13" edge="1">
          <mxGeometry x="0.1897" y="2" relative="1" as="geometry">
            <mxPoint as="offset" />
          </mxGeometry>
        </mxCell>
        <mxCell id="CE-2ABupStHAEgcUpKlA-15" value="&amp;lt;&amp;lt;include&amp;gt;&amp;gt;" style="edgeStyle=orthogonalEdgeStyle;rounded=0;orthogonalLoop=1;jettySize=auto;html=1;exitX=1;exitY=0.5;exitDx=0;exitDy=0;entryX=0;entryY=0.5;entryDx=0;entryDy=0;dashed=1;" parent="1" source="CE-2ABupStHAEgcUpKlA-10" target="CE-2ABupStHAEgcUpKlA-12" edge="1">
          <mxGeometry relative="1" as="geometry" />
        </mxCell>
        <mxCell id="CE-2ABupStHAEgcUpKlA-19" value="&amp;lt;&amp;lt;include&amp;gt;&amp;gt;" style="edgeStyle=orthogonalEdgeStyle;rounded=0;orthogonalLoop=1;jettySize=auto;html=1;exitX=0.5;exitY=1;exitDx=0;exitDy=0;entryX=0;entryY=0.5;entryDx=0;entryDy=0;dashed=1;" parent="1" source="CE-2ABupStHAEgcUpKlA-10" target="CE-2ABupStHAEgcUpKlA-18" edge="1">
          <mxGeometry x="0.1607" relative="1" as="geometry">
            <mxPoint as="offset" />
          </mxGeometry>
        </mxCell>
        <mxCell id="CE-2ABupStHAEgcUpKlA-10" value="Modifica password" style="ellipse;whiteSpace=wrap;html=1;" parent="1" vertex="1">
          <mxGeometry x="220" y="2980" width="120" height="80" as="geometry" />
        </mxCell>
        <mxCell id="CE-2ABupStHAEgcUpKlA-12" value="Inserimento nuova password" style="ellipse;whiteSpace=wrap;html=1;" parent="1" vertex="1">
          <mxGeometry x="454" y="2980" width="120" height="80" as="geometry" />
        </mxCell>
        <mxCell id="CE-2ABupStHAEgcUpKlA-13" value="Verifica esistenza email&amp;nbsp;" style="ellipse;whiteSpace=wrap;html=1;" parent="1" vertex="1">
          <mxGeometry x="454" y="2882" width="120" height="80" as="geometry" />
        </mxCell>
        <mxCell id="CE-2ABupStHAEgcUpKlA-17" style="edgeStyle=orthogonalEdgeStyle;rounded=0;orthogonalLoop=1;jettySize=auto;html=1;exitX=1;exitY=0.5;exitDx=0;exitDy=0;entryX=0.5;entryY=0.5;entryDx=0;entryDy=0;entryPerimeter=0;endArrow=none;endFill=0;" parent="1" source="CE-2ABupStHAEgcUpKlA-18" target="Z2-DFWVG9txQfcwxgaRv-98" edge="1">
          <mxGeometry relative="1" as="geometry" />
        </mxCell>
        <mxCell id="CE-2ABupStHAEgcUpKlA-18" value="Invio email" style="ellipse;whiteSpace=wrap;html=1;" parent="1" vertex="1">
          <mxGeometry x="454" y="3070" width="120" height="80" as="geometry" />
        </mxCell>
        <mxCell id="CE-2ABupStHAEgcUpKlA-28" style="edgeStyle=orthogonalEdgeStyle;rounded=0;orthogonalLoop=1;jettySize=auto;html=1;exitX=0.5;exitY=0.5;exitDx=0;exitDy=0;exitPerimeter=0;entryX=1;entryY=0.5;entryDx=0;entryDy=0;endArrow=none;endFill=0;" parent="1" source="CE-2ABupStHAEgcUpKlA-22" target="CE-2ABupStHAEgcUpKlA-23" edge="1">
          <mxGeometry relative="1" as="geometry" />
        </mxCell>
        <mxCell id="CE-2ABupStHAEgcUpKlA-29" style="edgeStyle=orthogonalEdgeStyle;rounded=0;orthogonalLoop=1;jettySize=auto;html=1;exitX=0.5;exitY=0.5;exitDx=0;exitDy=0;exitPerimeter=0;entryX=0;entryY=0.5;entryDx=0;entryDy=0;endArrow=none;endFill=0;" parent="1" source="CE-2ABupStHAEgcUpKlA-22" target="mxfJlP3PRgjQnhU5pGyH-3" edge="1">
          <mxGeometry relative="1" as="geometry" />
        </mxCell>
        <mxCell id="CE-2ABupStHAEgcUpKlA-22" value="Database&lt;br&gt;" style="shape=umlActor;verticalLabelPosition=bottom;verticalAlign=top;html=1;outlineConnect=0;" parent="1" vertex="1">
          <mxGeometry x="249" y="3620" width="30" height="60" as="geometry" />
        </mxCell>
        <mxCell id="CE-2ABupStHAEgcUpKlA-23" value="Visione offerte" style="ellipse;whiteSpace=wrap;html=1;" parent="1" vertex="1">
          <mxGeometry x="40" y="3610" width="120" height="80" as="geometry" />
        </mxCell>
        <mxCell id="CE-2ABupStHAEgcUpKlA-34" style="edgeStyle=orthogonalEdgeStyle;rounded=0;orthogonalLoop=1;jettySize=auto;html=1;exitX=0.5;exitY=0.5;exitDx=0;exitDy=0;exitPerimeter=0;endArrow=none;endFill=0;" parent="1" source="CE-2ABupStHAEgcUpKlA-33" edge="1">
          <mxGeometry relative="1" as="geometry">
            <Array as="points">
              <mxPoint x="885" y="3930" />
              <mxPoint x="1058" y="3930" />
            </Array>
            <mxPoint x="1058" y="3960" as="targetPoint" />
          </mxGeometry>
        </mxCell>
        <mxCell id="CE-2ABupStHAEgcUpKlA-33" value="Database" style="shape=umlActor;verticalLabelPosition=bottom;verticalAlign=top;html=1;outlineConnect=0;" parent="1" vertex="1">
          <mxGeometry x="870" y="3900" width="30" height="60" as="geometry" />
        </mxCell>
        <mxCell id="CE-2ABupStHAEgcUpKlA-37" style="edgeStyle=orthogonalEdgeStyle;rounded=0;orthogonalLoop=1;jettySize=auto;html=1;exitX=0.5;exitY=0.5;exitDx=0;exitDy=0;exitPerimeter=0;entryX=0;entryY=0.5;entryDx=0;entryDy=0;endArrow=none;endFill=0;" parent="1" source="CE-2ABupStHAEgcUpKlA-35" target="CE-2ABupStHAEgcUpKlA-36" edge="1">
          <mxGeometry relative="1" as="geometry">
            <mxPoint x="370" y="6070" as="targetPoint" />
          </mxGeometry>
        </mxCell>
        <mxCell id="CE-2ABupStHAEgcUpKlA-35" value="Cliente" style="shape=umlActor;verticalLabelPosition=bottom;verticalAlign=top;html=1;outlineConnect=0;" parent="1" vertex="1">
          <mxGeometry x="160" y="6040" width="30" height="60" as="geometry" />
        </mxCell>
        <mxCell id="CE-2ABupStHAEgcUpKlA-41" value="&amp;lt;&amp;lt;include&amp;gt;&amp;gt;" style="edgeStyle=orthogonalEdgeStyle;rounded=0;orthogonalLoop=1;jettySize=auto;html=1;entryX=0;entryY=0.5;entryDx=0;entryDy=0;dashed=1;exitX=0.5;exitY=0;exitDx=0;exitDy=0;" parent="1" source="CE-2ABupStHAEgcUpKlA-36" target="CE-2ABupStHAEgcUpKlA-39" edge="1">
          <mxGeometry relative="1" as="geometry">
            <mxPoint x="260" y="6230" as="sourcePoint" />
          </mxGeometry>
        </mxCell>
        <mxCell id="CE-2ABupStHAEgcUpKlA-42" value="&amp;lt;&amp;lt;extend&amp;gt;&amp;gt;" style="edgeStyle=orthogonalEdgeStyle;rounded=0;orthogonalLoop=1;jettySize=auto;html=1;exitX=0.5;exitY=1;exitDx=0;exitDy=0;entryX=0;entryY=0.5;entryDx=0;entryDy=0;dashed=1;" parent="1" source="CE-2ABupStHAEgcUpKlA-36" target="CE-2ABupStHAEgcUpKlA-40" edge="1">
          <mxGeometry relative="1" as="geometry" />
        </mxCell>
        <mxCell id="CE-2ABupStHAEgcUpKlA-43" value="&amp;lt;&amp;lt;include&amp;gt;&amp;gt;" style="edgeStyle=orthogonalEdgeStyle;rounded=0;orthogonalLoop=1;jettySize=auto;html=1;entryX=0;entryY=0.5;entryDx=0;entryDy=0;dashed=1;exitX=1;exitY=0.5;exitDx=0;exitDy=0;" parent="1" source="CE-2ABupStHAEgcUpKlA-36" target="CE-2ABupStHAEgcUpKlA-38" edge="1">
          <mxGeometry relative="1" as="geometry">
            <mxPoint x="220" y="5940" as="sourcePoint" />
          </mxGeometry>
        </mxCell>
        <mxCell id="CE-2ABupStHAEgcUpKlA-36" value="Pubblicare&lt;br&gt;recensione" style="ellipse;whiteSpace=wrap;html=1;" parent="1" vertex="1">
          <mxGeometry x="235.5" y="6030" width="120" height="80" as="geometry" />
        </mxCell>
        <mxCell id="CE-2ABupStHAEgcUpKlA-38" value="Inserire voto&lt;br&gt;in stelle" style="ellipse;whiteSpace=wrap;html=1;" parent="1" vertex="1">
          <mxGeometry x="464" y="6028.2" width="125" height="80" as="geometry" />
        </mxCell>
        <mxCell id="CE-2ABupStHAEgcUpKlA-39" value="Inserire codice prenotazione" style="ellipse;whiteSpace=wrap;html=1;" parent="1" vertex="1">
          <mxGeometry x="464" y="5930" width="125" height="80" as="geometry" />
        </mxCell>
        <mxCell id="CE-2ABupStHAEgcUpKlA-40" value="Scrivere&lt;br&gt;commento" style="ellipse;whiteSpace=wrap;html=1;" parent="1" vertex="1">
          <mxGeometry x="464" y="6128.2" width="125" height="80" as="geometry" />
        </mxCell>
        <mxCell id="CE-2ABupStHAEgcUpKlA-47" value="Rimuovere&lt;br&gt;offerte" style="ellipse;whiteSpace=wrap;html=1;" parent="1" vertex="1">
          <mxGeometry x="203.5" y="5520" width="120" height="80" as="geometry" />
        </mxCell>
        <mxCell id="CE-2ABupStHAEgcUpKlA-53" style="edgeStyle=orthogonalEdgeStyle;rounded=0;orthogonalLoop=1;jettySize=auto;html=1;exitX=1;exitY=0.5;exitDx=0;exitDy=0;entryX=0.5;entryY=0.5;entryDx=0;entryDy=0;entryPerimeter=0;endArrow=none;endFill=0;" parent="1" source="oRxd7dk-FcgTsgBfvTRa-19" target="oRxd7dk-FcgTsgBfvTRa-21" edge="1">
          <mxGeometry relative="1" as="geometry" />
        </mxCell>
        <mxCell id="CE-2ABupStHAEgcUpKlA-61" style="edgeStyle=orthogonalEdgeStyle;rounded=0;orthogonalLoop=1;jettySize=auto;html=1;exitX=0.5;exitY=0.5;exitDx=0;exitDy=0;exitPerimeter=0;entryX=0;entryY=1;entryDx=0;entryDy=0;endArrow=none;endFill=0;" parent="1" source="CE-2ABupStHAEgcUpKlA-60" target="SS0m3f73n02m4hr_4awN-11" edge="1">
          <mxGeometry relative="1" as="geometry" />
        </mxCell>
        <mxCell id="CE-2ABupStHAEgcUpKlA-60" value="Gestore" style="shape=umlActor;verticalLabelPosition=bottom;verticalAlign=top;html=1;outlineConnect=0;" parent="1" vertex="1">
          <mxGeometry x="145" y="4830" width="30" height="60" as="geometry" />
        </mxCell>
        <mxCell id="CE-2ABupStHAEgcUpKlA-66" style="edgeStyle=orthogonalEdgeStyle;rounded=0;orthogonalLoop=1;jettySize=auto;html=1;exitX=0.5;exitY=0.5;exitDx=0;exitDy=0;exitPerimeter=0;entryX=0;entryY=0.5;entryDx=0;entryDy=0;endArrow=none;endFill=0;" parent="1" source="CE-2ABupStHAEgcUpKlA-65" target="S087_MRzJJKmq3OUhPPp-9" edge="1">
          <mxGeometry relative="1" as="geometry" />
        </mxCell>
        <mxCell id="CE-2ABupStHAEgcUpKlA-65" value="Utente anonimo" style="shape=umlActor;verticalLabelPosition=bottom;verticalAlign=top;html=1;outlineConnect=0;" parent="1" vertex="1">
          <mxGeometry x="-10" y="170" width="30" height="60" as="geometry" />
        </mxCell>
        <mxCell id="a3RSkmsYszNqbXOPoULY-2" value="&amp;lt;&amp;lt;extend&amp;gt;&amp;gt;" style="edgeStyle=orthogonalEdgeStyle;rounded=0;orthogonalLoop=1;jettySize=auto;html=1;exitX=0.5;exitY=0;exitDx=0;exitDy=0;entryX=0.5;entryY=1;entryDx=0;entryDy=0;dashed=1;" parent="1" source="a3RSkmsYszNqbXOPoULY-1" target="oRxd7dk-FcgTsgBfvTRa-9" edge="1">
          <mxGeometry x="-0.2" relative="1" as="geometry">
            <mxPoint as="offset" />
          </mxGeometry>
        </mxCell>
        <mxCell id="bXUM3DA4n-T2ZZjxD_Sl-10" value="" style="edgeStyle=orthogonalEdgeStyle;rounded=0;orthogonalLoop=1;jettySize=auto;html=1;dashed=1;" parent="1" source="a3RSkmsYszNqbXOPoULY-1" target="oRxd7dk-FcgTsgBfvTRa-9" edge="1">
          <mxGeometry relative="1" as="geometry" />
        </mxCell>
        <mxCell id="a3RSkmsYszNqbXOPoULY-1" value="Rispondere&lt;br&gt;ai commenti" style="ellipse;whiteSpace=wrap;html=1;" parent="1" vertex="1">
          <mxGeometry x="203.5" y="5760" width="120" height="80" as="geometry" />
        </mxCell>
        <mxCell id="uRqSC-uHoUhp1tQpj0x3-1" value="Riconferma&lt;br&gt;password" style="ellipse;whiteSpace=wrap;html=1;" parent="1" vertex="1">
          <mxGeometry x="335" y="280" width="120" height="80" as="geometry" />
        </mxCell>
        <mxCell id="y0pF3mSitlNuGOX3nc8Y-1" value="Scelta tipologia account" style="ellipse;whiteSpace=wrap;html=1;" parent="1" vertex="1">
          <mxGeometry x="100" y="10" width="120" height="80" as="geometry" />
        </mxCell>
        <mxCell id="y0pF3mSitlNuGOX3nc8Y-7" value="Inserimento&lt;br&gt;numero di&lt;br&gt;persone" style="ellipse;whiteSpace=wrap;html=1;" parent="1" vertex="1">
          <mxGeometry x="615" y="3750" width="120" height="80" as="geometry" />
        </mxCell>
        <mxCell id="y0pF3mSitlNuGOX3nc8Y-8" value="Inserimento&amp;nbsp;&lt;br&gt;provincia" style="ellipse;whiteSpace=wrap;html=1;" parent="1" vertex="1">
          <mxGeometry x="615" y="3460" width="120" height="80" as="geometry" />
        </mxCell>
        <mxCell id="y0pF3mSitlNuGOX3nc8Y-21" style="edgeStyle=orthogonalEdgeStyle;rounded=0;orthogonalLoop=1;jettySize=auto;html=1;exitX=1;exitY=0.5;exitDx=0;exitDy=0;endArrow=none;endFill=0;entryX=0.5;entryY=0.5;entryDx=0;entryDy=0;entryPerimeter=0;" parent="1" source="CE-2ABupStHAEgcUpKlA-47" target="CE-2ABupStHAEgcUpKlA-45" edge="1">
          <mxGeometry relative="1" as="geometry">
            <Array as="points">
              <mxPoint x="410" y="5560" />
              <mxPoint x="410" y="5450" />
            </Array>
          </mxGeometry>
        </mxCell>
        <mxCell id="y0pF3mSitlNuGOX3nc8Y-23" style="edgeStyle=orthogonalEdgeStyle;rounded=0;orthogonalLoop=1;jettySize=auto;html=1;exitX=1;exitY=0.5;exitDx=0;exitDy=0;entryX=0;entryY=1;entryDx=0;entryDy=0;entryPerimeter=0;endArrow=none;endFill=0;" parent="1" source="oRxd7dk-FcgTsgBfvTRa-9" target="CE-2ABupStHAEgcUpKlA-45" edge="1">
          <mxGeometry relative="1" as="geometry">
            <Array as="points">
              <mxPoint x="440" y="5670" />
              <mxPoint x="440" y="5480" />
            </Array>
          </mxGeometry>
        </mxCell>
        <mxCell id="bXUM3DA4n-T2ZZjxD_Sl-9" value="" style="edgeStyle=orthogonalEdgeStyle;rounded=0;orthogonalLoop=1;jettySize=auto;html=1;entryX=0.5;entryY=0;entryDx=0;entryDy=0;entryPerimeter=0;endArrow=none;endFill=0;exitX=1;exitY=0.5;exitDx=0;exitDy=0;" parent="1" source="oRxd7dk-FcgTsgBfvTRa-5" target="CE-2ABupStHAEgcUpKlA-45" edge="1">
          <mxGeometry relative="1" as="geometry">
            <Array as="points" />
            <mxPoint x="310" y="5211" as="sourcePoint" />
            <mxPoint x="487" y="5560" as="targetPoint" />
          </mxGeometry>
        </mxCell>
        <mxCell id="CE-2ABupStHAEgcUpKlA-45" value="Database&lt;br&gt;" style="shape=umlActor;verticalLabelPosition=bottom;verticalAlign=top;html=1;outlineConnect=0;" parent="1" vertex="1">
          <mxGeometry x="470" y="5420" width="30" height="60" as="geometry" />
        </mxCell>
        <mxCell id="2HYMOYURkkRUxnqrE6Hb-2" value="" style="ellipse;whiteSpace=wrap;html=1;" parent="1" vertex="1">
          <mxGeometry x="2150" y="3305" width="630" height="675" as="geometry" />
        </mxCell>
        <mxCell id="2HYMOYURkkRUxnqrE6Hb-3" value="BellHotel&amp;nbsp;" style="text;html=1;strokeColor=none;fillColor=none;align=center;verticalAlign=middle;whiteSpace=wrap;rounded=0;fontSize=40;" parent="1" vertex="1">
          <mxGeometry x="2440" y="3630" width="60" height="30" as="geometry" />
        </mxCell>
        <mxCell id="2HYMOYURkkRUxnqrE6Hb-4" value="" style="rounded=0;whiteSpace=wrap;html=1;" parent="1" vertex="1">
          <mxGeometry x="1700" y="3310" width="160" height="670" as="geometry" />
        </mxCell>
        <mxCell id="2HYMOYURkkRUxnqrE6Hb-5" value="Cliente" style="text;html=1;strokeColor=none;fillColor=none;align=center;verticalAlign=middle;whiteSpace=wrap;rounded=0;fontSize=40;" parent="1" vertex="1">
          <mxGeometry x="1750" y="3630" width="60" height="30" as="geometry" />
        </mxCell>
        <mxCell id="2HYMOYURkkRUxnqrE6Hb-6" style="edgeStyle=orthogonalEdgeStyle;rounded=0;orthogonalLoop=1;jettySize=auto;html=1;exitX=0.5;exitY=1;exitDx=0;exitDy=0;" parent="1" source="2HYMOYURkkRUxnqrE6Hb-3" target="2HYMOYURkkRUxnqrE6Hb-3" edge="1">
          <mxGeometry relative="1" as="geometry" />
        </mxCell>
        <mxCell id="2HYMOYURkkRUxnqrE6Hb-7" style="edgeStyle=orthogonalEdgeStyle;rounded=0;orthogonalLoop=1;jettySize=auto;html=1;exitX=0.5;exitY=1;exitDx=0;exitDy=0;" parent="1" source="2HYMOYURkkRUxnqrE6Hb-5" target="2HYMOYURkkRUxnqrE6Hb-5" edge="1">
          <mxGeometry relative="1" as="geometry" />
        </mxCell>
        <mxCell id="2HYMOYURkkRUxnqrE6Hb-8" value="Attore" style="text;html=1;strokeColor=none;fillColor=none;align=center;verticalAlign=middle;whiteSpace=wrap;rounded=0;fontSize=20;" parent="1" vertex="1">
          <mxGeometry x="1750" y="3670" width="60" height="30" as="geometry" />
        </mxCell>
        <mxCell id="2HYMOYURkkRUxnqrE6Hb-9" value="" style="rounded=0;whiteSpace=wrap;html=1;" parent="1" vertex="1">
          <mxGeometry x="2290" y="4130" width="330" height="160" as="geometry" />
        </mxCell>
        <mxCell id="2HYMOYURkkRUxnqrE6Hb-10" value="Utente non autenticato" style="text;html=1;strokeColor=none;fillColor=none;align=center;verticalAlign=middle;whiteSpace=wrap;rounded=0;fontSize=40;" parent="1" vertex="1">
          <mxGeometry x="2417.5" y="4190" width="75" height="30" as="geometry" />
        </mxCell>
        <mxCell id="2HYMOYURkkRUxnqrE6Hb-11" style="edgeStyle=orthogonalEdgeStyle;rounded=0;orthogonalLoop=1;jettySize=auto;html=1;exitX=0.5;exitY=1;exitDx=0;exitDy=0;" parent="1" source="2HYMOYURkkRUxnqrE6Hb-10" target="2HYMOYURkkRUxnqrE6Hb-10" edge="1">
          <mxGeometry relative="1" as="geometry" />
        </mxCell>
        <mxCell id="2HYMOYURkkRUxnqrE6Hb-12" value="Attore" style="text;html=1;strokeColor=none;fillColor=none;align=center;verticalAlign=middle;whiteSpace=wrap;rounded=0;fontSize=20;" parent="1" vertex="1">
          <mxGeometry x="2432.5" y="4250" width="60" height="30" as="geometry" />
        </mxCell>
        <mxCell id="2HYMOYURkkRUxnqrE6Hb-18" value="&lt;font style=&quot;font-size: 15px;&quot;&gt;Login&lt;/font&gt;" style="rounded=0;orthogonalLoop=1;jettySize=auto;html=1;exitX=0.332;exitY=0;exitDx=0;exitDy=0;exitPerimeter=0;entryX=0.396;entryY=0.99;entryDx=0;entryDy=0;entryPerimeter=0;" parent="1" source="2HYMOYURkkRUxnqrE6Hb-9" target="2HYMOYURkkRUxnqrE6Hb-2" edge="1">
          <mxGeometry x="-0.2345" relative="1" as="geometry">
            <mxPoint x="2410" y="4000" as="targetPoint" />
            <mxPoint x="2401.5600000000004" y="4130.960000000001" as="sourcePoint" />
            <mxPoint as="offset" />
          </mxGeometry>
        </mxCell>
        <mxCell id="2HYMOYURkkRUxnqrE6Hb-25" value="" style="rounded=0;whiteSpace=wrap;html=1;" parent="1" vertex="1">
          <mxGeometry x="3050" y="3310" width="160" height="680" as="geometry" />
        </mxCell>
        <mxCell id="2HYMOYURkkRUxnqrE6Hb-26" value="Gestore" style="text;html=1;strokeColor=none;fillColor=none;align=center;verticalAlign=middle;whiteSpace=wrap;rounded=0;fontSize=40;" parent="1" vertex="1">
          <mxGeometry x="3100" y="3635" width="60" height="30" as="geometry" />
        </mxCell>
        <mxCell id="2HYMOYURkkRUxnqrE6Hb-27" value="Attore" style="text;html=1;strokeColor=none;fillColor=none;align=center;verticalAlign=middle;whiteSpace=wrap;rounded=0;fontSize=20;" parent="1" vertex="1">
          <mxGeometry x="3100" y="3680" width="60" height="30" as="geometry" />
        </mxCell>
        <mxCell id="2HYMOYURkkRUxnqrE6Hb-28" value="&lt;font style=&quot;font-size: 15px;&quot;&gt;Aggiungi hotel&lt;/font&gt;" style="rounded=0;orthogonalLoop=1;jettySize=auto;html=1;fontSize=15;exitX=-0.001;exitY=0.205;exitDx=0;exitDy=0;exitPerimeter=0;entryX=0.941;entryY=0.26;entryDx=0;entryDy=0;entryPerimeter=0;" parent="1" target="2HYMOYURkkRUxnqrE6Hb-2" edge="1">
          <mxGeometry relative="1" as="geometry">
            <mxPoint x="3049.8399999999992" y="3479.68" as="sourcePoint" />
            <mxPoint x="2790" y="3479.17" as="targetPoint" />
          </mxGeometry>
        </mxCell>
        <mxCell id="2HYMOYURkkRUxnqrE6Hb-29" value="" style="rounded=0;orthogonalLoop=1;jettySize=auto;html=1;fontSize=15;exitX=-0.008;exitY=0.263;exitDx=0;exitDy=0;exitPerimeter=0;entryX=0.968;entryY=0.318;entryDx=0;entryDy=0;entryPerimeter=0;" parent="1" target="2HYMOYURkkRUxnqrE6Hb-2" edge="1">
          <mxGeometry relative="1" as="geometry">
            <mxPoint x="3048.7200000000003" y="3519.1200000000003" as="sourcePoint" />
            <mxPoint x="2790" y="3519.17" as="targetPoint" />
          </mxGeometry>
        </mxCell>
        <mxCell id="KPlrOnKXJkRDlTgK6m8Z-49" value="&lt;font style=&quot;font-size: 15px;&quot;&gt;Modifica hotel&lt;/font&gt;" style="edgeLabel;html=1;align=center;verticalAlign=middle;resizable=0;points=[];fontSize=15;" parent="2HYMOYURkkRUxnqrE6Hb-29" connectable="0" vertex="1">
          <mxGeometry x="0.1208" y="-2" relative="1" as="geometry">
            <mxPoint as="offset" />
          </mxGeometry>
        </mxCell>
        <mxCell id="bFDVga5rR-ntTg2EWx7J-2" value="" style="rounded=0;whiteSpace=wrap;html=1;" parent="1" vertex="1">
          <mxGeometry x="2290" y="3000" width="350" height="160" as="geometry" />
        </mxCell>
        <mxCell id="bFDVga5rR-ntTg2EWx7J-3" value="" style="rounded=0;whiteSpace=wrap;html=1;" parent="1" vertex="1">
          <mxGeometry x="2308" y="3030" width="110" height="100" as="geometry" />
        </mxCell>
        <mxCell id="bFDVga5rR-ntTg2EWx7J-4" value="&lt;font style=&quot;font-size: 20px;&quot;&gt;Sistema di pagamento&lt;/font&gt;" style="text;html=1;strokeColor=none;fillColor=none;align=center;verticalAlign=middle;whiteSpace=wrap;rounded=0;" parent="1" vertex="1">
          <mxGeometry x="2333" y="3065" width="60" height="30" as="geometry" />
        </mxCell>
        <mxCell id="bFDVga5rR-ntTg2EWx7J-5" value="" style="rounded=0;whiteSpace=wrap;html=1;" parent="1" vertex="1">
          <mxGeometry x="2430" y="3030" width="195" height="100" as="geometry" />
        </mxCell>
        <mxCell id="bFDVga5rR-ntTg2EWx7J-6" value="&lt;span style=&quot;font-size: 20px;&quot;&gt;Sistema invio email&lt;br&gt;&lt;br&gt;&lt;/span&gt;" style="text;html=1;strokeColor=none;fillColor=none;align=center;verticalAlign=middle;whiteSpace=wrap;rounded=0;" parent="1" vertex="1">
          <mxGeometry x="2497.5" y="3060" width="60" height="60" as="geometry" />
        </mxCell>
        <mxCell id="bFDVga5rR-ntTg2EWx7J-9" value="&lt;font style=&quot;font-size: 15px;&quot;&gt;Pagamento&lt;/font&gt;" style="endArrow=classic;html=1;rounded=0;exitX=0.291;exitY=0.047;exitDx=0;exitDy=0;exitPerimeter=0;" parent="1" source="2HYMOYURkkRUxnqrE6Hb-2" edge="1">
          <mxGeometry x="0.226" width="50" height="50" relative="1" as="geometry">
            <mxPoint x="2334.12" y="3362.2700000000004" as="sourcePoint" />
            <mxPoint x="2333" y="3130" as="targetPoint" />
            <mxPoint as="offset" />
          </mxGeometry>
        </mxCell>
        <mxCell id="bFDVga5rR-ntTg2EWx7J-10" value="&lt;span style=&quot;font-size: 15px;&quot;&gt;Richiesta&lt;br&gt;invio email&lt;/span&gt;" style="edgeStyle=orthogonalEdgeStyle;rounded=0;orthogonalLoop=1;jettySize=auto;html=1;exitX=0.478;exitY=0.001;exitDx=0;exitDy=0;exitPerimeter=0;" parent="1" edge="1">
          <mxGeometry x="0.0815" relative="1" as="geometry">
            <Array as="points">
              <mxPoint x="2484.66" y="3259.31" />
              <mxPoint x="2484.66" y="3259.31" />
            </Array>
            <mxPoint as="offset" />
            <mxPoint x="2484.8" y="3305" as="sourcePoint" />
            <mxPoint x="2484.66" y="3129.31" as="targetPoint" />
          </mxGeometry>
        </mxCell>
        <mxCell id="j_SmpPtcFX-Xvj_hm3Rd-1" value="&lt;font style=&quot;font-size: 15px;&quot;&gt;Invio email&amp;nbsp;&lt;/font&gt;" style="edgeStyle=orthogonalEdgeStyle;rounded=0;orthogonalLoop=1;jettySize=auto;html=1;exitX=0.75;exitY=1;exitDx=0;exitDy=0;entryX=0.676;entryY=0.032;entryDx=0;entryDy=0;entryPerimeter=0;" parent="1" source="bFDVga5rR-ntTg2EWx7J-5" target="2HYMOYURkkRUxnqrE6Hb-2" edge="1">
          <mxGeometry x="0.2207" relative="1" as="geometry">
            <mxPoint as="offset" />
            <mxPoint x="2570" y="3300" as="targetPoint" />
            <Array as="points">
              <mxPoint x="2576" y="3300" />
            </Array>
          </mxGeometry>
        </mxCell>
        <mxCell id="j_SmpPtcFX-Xvj_hm3Rd-2" value="&lt;font style=&quot;font-size: 15px;&quot;&gt;Conferma&lt;br&gt;pagamento&lt;/font&gt;" style="edgeStyle=orthogonalEdgeStyle;rounded=0;orthogonalLoop=1;jettySize=auto;html=1;exitX=0.75;exitY=1;exitDx=0;exitDy=0;entryX=0.381;entryY=0.013;entryDx=0;entryDy=0;entryPerimeter=0;" parent="1" source="bFDVga5rR-ntTg2EWx7J-3" target="2HYMOYURkkRUxnqrE6Hb-2" edge="1">
          <mxGeometry x="0.3079" relative="1" as="geometry">
            <mxPoint as="offset" />
          </mxGeometry>
        </mxCell>
        <mxCell id="bSY1W_dv-ZN48-VQN6T9-8" value="" style="ellipse;whiteSpace=wrap;html=1;align=center;aspect=fixed;fillColor=none;strokeColor=none;resizable=0;perimeter=centerPerimeter;rotatable=0;allowArrows=0;points=[];outlineConnect=1;" parent="1" vertex="1">
          <mxGeometry x="2308" y="4970" width="10" height="10" as="geometry" />
        </mxCell>
        <mxCell id="Xh_zwtsfEOE9FNI2SWYP-2" value="Inserimento email" style="ellipse;whiteSpace=wrap;html=1;" parent="1" vertex="1">
          <mxGeometry x="592.5" y="1830" width="120" height="80" as="geometry" />
        </mxCell>
        <mxCell id="Xh_zwtsfEOE9FNI2SWYP-3" value="Inserimento nuova password" style="ellipse;whiteSpace=wrap;html=1;" parent="1" vertex="1">
          <mxGeometry x="592.5" y="1990" width="120" height="80" as="geometry" />
        </mxCell>
        <mxCell id="Xh_zwtsfEOE9FNI2SWYP-18" style="edgeStyle=orthogonalEdgeStyle;rounded=0;orthogonalLoop=1;jettySize=auto;html=1;exitX=1;exitY=0.5;exitDx=0;exitDy=0;entryX=0;entryY=0.5;entryDx=0;entryDy=0;dashed=1;" parent="1" source="Xh_zwtsfEOE9FNI2SWYP-13" target="oRxd7dk-FcgTsgBfvTRa-19" edge="1">
          <mxGeometry relative="1" as="geometry" />
        </mxCell>
        <mxCell id="Xh_zwtsfEOE9FNI2SWYP-19" value="&amp;lt;&amp;lt;include&amp;gt;&amp;gt;" style="edgeLabel;html=1;align=center;verticalAlign=middle;resizable=0;points=[];" parent="Xh_zwtsfEOE9FNI2SWYP-18" vertex="1" connectable="0">
          <mxGeometry x="0.0641" relative="1" as="geometry">
            <mxPoint x="-10" as="offset" />
          </mxGeometry>
        </mxCell>
        <mxCell id="Xh_zwtsfEOE9FNI2SWYP-13" value="Pubblicazione hotel" style="ellipse;whiteSpace=wrap;html=1;" parent="1" vertex="1">
          <mxGeometry x="-10" y="5290" width="120" height="80" as="geometry" />
        </mxCell>
        <mxCell id="Xh_zwtsfEOE9FNI2SWYP-17" value="" style="endArrow=none;html=1;rounded=0;entryX=0;entryY=0.3333333333333333;entryDx=0;entryDy=0;entryPerimeter=0;exitX=0.934;exitY=0.254;exitDx=0;exitDy=0;exitPerimeter=0;" parent="1" source="oRxd7dk-FcgTsgBfvTRa-12" target="CE-2ABupStHAEgcUpKlA-45" edge="1">
          <mxGeometry width="50" height="50" relative="1" as="geometry">
            <mxPoint x="290" y="5440" as="sourcePoint" />
            <mxPoint x="340" y="5430" as="targetPoint" />
          </mxGeometry>
        </mxCell>
        <mxCell id="Xh_zwtsfEOE9FNI2SWYP-22" value="" style="endArrow=none;html=1;rounded=0;entryX=0.5;entryY=1;entryDx=0;entryDy=0;exitX=0.75;exitY=0.1;exitDx=0;exitDy=0;exitPerimeter=0;" parent="1" source="oRxd7dk-FcgTsgBfvTRa-4" target="Xh_zwtsfEOE9FNI2SWYP-13" edge="1">
          <mxGeometry width="50" height="50" relative="1" as="geometry">
            <mxPoint x="-10" y="5420" as="sourcePoint" />
            <mxPoint x="-10" y="5335" as="targetPoint" />
            <Array as="points">
              <mxPoint x="50" y="5426" />
            </Array>
          </mxGeometry>
        </mxCell>
        <mxCell id="J-8SajU0O88Lzjdd413y-10" value="Database" style="shape=umlActor;verticalLabelPosition=bottom;verticalAlign=top;html=1;outlineConnect=0;" parent="1" vertex="1">
          <mxGeometry x="649" y="5940" width="30" height="60" as="geometry" />
        </mxCell>
        <mxCell id="J-8SajU0O88Lzjdd413y-11" value="" style="endArrow=none;html=1;rounded=0;exitX=0.5;exitY=0.5;exitDx=0;exitDy=0;exitPerimeter=0;entryX=1;entryY=0.5;entryDx=0;entryDy=0;" parent="1" source="J-8SajU0O88Lzjdd413y-10" target="CE-2ABupStHAEgcUpKlA-39" edge="1">
          <mxGeometry width="50" height="50" relative="1" as="geometry">
            <mxPoint x="509" y="5920" as="sourcePoint" />
            <mxPoint x="559" y="5870" as="targetPoint" />
          </mxGeometry>
        </mxCell>
        <mxCell id="oE2IQZJVkQL2bqvnhQpu-3" value="Cliente" style="shape=umlActor;verticalLabelPosition=bottom;verticalAlign=top;html=1;outlineConnect=0;" parent="1" vertex="1">
          <mxGeometry x="170" y="6330" width="30" height="60" as="geometry" />
        </mxCell>
        <mxCell id="oE2IQZJVkQL2bqvnhQpu-4" value="Visualizzare &lt;br&gt;offerte" style="ellipse;whiteSpace=wrap;html=1;" parent="1" vertex="1">
          <mxGeometry x="279" y="6400" width="120" height="80" as="geometry" />
        </mxCell>
        <mxCell id="oE2IQZJVkQL2bqvnhQpu-8" value="" style="endArrow=none;html=1;rounded=0;exitX=0.5;exitY=0.5;exitDx=0;exitDy=0;exitPerimeter=0;edgeStyle=orthogonalEdgeStyle;entryX=0.5;entryY=0;entryDx=0;entryDy=0;" parent="1" source="oE2IQZJVkQL2bqvnhQpu-3" target="oE2IQZJVkQL2bqvnhQpu-4" edge="1">
          <mxGeometry width="50" height="50" relative="1" as="geometry">
            <mxPoint x="450" y="6370" as="sourcePoint" />
            <mxPoint x="340" y="6370" as="targetPoint" />
            <Array as="points">
              <mxPoint x="339" y="6360" />
            </Array>
          </mxGeometry>
        </mxCell>
        <mxCell id="oE2IQZJVkQL2bqvnhQpu-9" value="Database" style="shape=umlActor;verticalLabelPosition=bottom;verticalAlign=top;html=1;outlineConnect=0;" parent="1" vertex="1">
          <mxGeometry x="480" y="6410" width="30" height="60" as="geometry" />
        </mxCell>
        <mxCell id="oE2IQZJVkQL2bqvnhQpu-10" value="" style="endArrow=none;html=1;rounded=0;exitX=1;exitY=0.5;exitDx=0;exitDy=0;entryX=0.5;entryY=0.5;entryDx=0;entryDy=0;entryPerimeter=0;" parent="1" source="oE2IQZJVkQL2bqvnhQpu-4" target="oE2IQZJVkQL2bqvnhQpu-9" edge="1">
          <mxGeometry width="50" height="50" relative="1" as="geometry">
            <mxPoint x="450" y="6370" as="sourcePoint" />
            <mxPoint x="500" y="6320" as="targetPoint" />
          </mxGeometry>
        </mxCell>
        <mxCell id="oE2IQZJVkQL2bqvnhQpu-11" value="Cliente" style="shape=umlActor;verticalLabelPosition=bottom;verticalAlign=top;html=1;outlineConnect=0;" parent="1" vertex="1">
          <mxGeometry x="230" y="6620" width="30" height="60" as="geometry" />
        </mxCell>
        <mxCell id="oE2IQZJVkQL2bqvnhQpu-17" style="edgeStyle=orthogonalEdgeStyle;rounded=0;orthogonalLoop=1;jettySize=auto;html=1;exitX=0.5;exitY=0;exitDx=0;exitDy=0;entryX=0;entryY=0.5;entryDx=0;entryDy=0;dashed=1;" parent="1" source="oE2IQZJVkQL2bqvnhQpu-12" target="oE2IQZJVkQL2bqvnhQpu-15" edge="1">
          <mxGeometry relative="1" as="geometry" />
        </mxCell>
        <mxCell id="oE2IQZJVkQL2bqvnhQpu-19" value="&amp;lt;&amp;lt;extend&amp;gt;&amp;gt;" style="edgeLabel;html=1;align=center;verticalAlign=middle;resizable=0;points=[];" parent="oE2IQZJVkQL2bqvnhQpu-17" connectable="0" vertex="1">
          <mxGeometry x="0.4943" y="-2" relative="1" as="geometry">
            <mxPoint x="-20" y="-2" as="offset" />
          </mxGeometry>
        </mxCell>
        <mxCell id="oE2IQZJVkQL2bqvnhQpu-18" style="edgeStyle=orthogonalEdgeStyle;rounded=0;orthogonalLoop=1;jettySize=auto;html=1;exitX=0.5;exitY=1;exitDx=0;exitDy=0;entryX=0;entryY=0.5;entryDx=0;entryDy=0;dashed=1;" parent="1" source="oE2IQZJVkQL2bqvnhQpu-12" target="oE2IQZJVkQL2bqvnhQpu-16" edge="1">
          <mxGeometry relative="1" as="geometry" />
        </mxCell>
        <mxCell id="oE2IQZJVkQL2bqvnhQpu-20" value="&amp;lt;&amp;lt;extend&amp;gt;&amp;gt;" style="edgeLabel;html=1;align=center;verticalAlign=middle;resizable=0;points=[];" parent="oE2IQZJVkQL2bqvnhQpu-18" connectable="0" vertex="1">
          <mxGeometry x="0.1891" relative="1" as="geometry">
            <mxPoint as="offset" />
          </mxGeometry>
        </mxCell>
        <mxCell id="oE2IQZJVkQL2bqvnhQpu-12" value="Gestione prenotazione" style="ellipse;whiteSpace=wrap;html=1;" parent="1" vertex="1">
          <mxGeometry x="339" y="6660" width="120" height="80" as="geometry" />
        </mxCell>
        <mxCell id="oE2IQZJVkQL2bqvnhQpu-13" value="" style="endArrow=none;html=1;rounded=0;exitX=0.5;exitY=0.5;exitDx=0;exitDy=0;exitPerimeter=0;entryX=0;entryY=0;entryDx=0;entryDy=0;edgeStyle=orthogonalEdgeStyle;" parent="1" source="oE2IQZJVkQL2bqvnhQpu-11" target="oE2IQZJVkQL2bqvnhQpu-12" edge="1">
          <mxGeometry width="50" height="50" relative="1" as="geometry">
            <mxPoint x="510" y="6630" as="sourcePoint" />
            <mxPoint x="560" y="6580" as="targetPoint" />
          </mxGeometry>
        </mxCell>
        <mxCell id="oE2IQZJVkQL2bqvnhQpu-15" value="Modifica prenotazione" style="ellipse;whiteSpace=wrap;html=1;" parent="1" vertex="1">
          <mxGeometry x="535" y="6600" width="120" height="80" as="geometry" />
        </mxCell>
        <mxCell id="oE2IQZJVkQL2bqvnhQpu-16" value="Elimina prenotazione" style="ellipse;whiteSpace=wrap;html=1;" parent="1" vertex="1">
          <mxGeometry x="535" y="6720" width="120" height="80" as="geometry" />
        </mxCell>
        <mxCell id="oE2IQZJVkQL2bqvnhQpu-21" value="Utente non &lt;br&gt;autenticato" style="shape=umlActor;verticalLabelPosition=bottom;verticalAlign=top;html=1;outlineConnect=0;" parent="1" vertex="1">
          <mxGeometry x="170" y="6490" width="30" height="60" as="geometry" />
        </mxCell>
        <mxCell id="oE2IQZJVkQL2bqvnhQpu-24" value="" style="endArrow=none;html=1;rounded=0;exitX=0.5;exitY=0.5;exitDx=0;exitDy=0;exitPerimeter=0;edgeStyle=orthogonalEdgeStyle;entryX=0.5;entryY=1;entryDx=0;entryDy=0;" parent="1" source="oE2IQZJVkQL2bqvnhQpu-21" target="oE2IQZJVkQL2bqvnhQpu-4" edge="1">
          <mxGeometry width="50" height="50" relative="1" as="geometry">
            <mxPoint x="198.5" y="6479.12" as="sourcePoint" />
            <mxPoint x="344.5" y="6503.12" as="targetPoint" />
            <Array as="points">
              <mxPoint x="339" y="6520" />
            </Array>
          </mxGeometry>
        </mxCell>
        <mxCell id="oE2IQZJVkQL2bqvnhQpu-25" value="Database" style="shape=umlActor;verticalLabelPosition=bottom;verticalAlign=top;html=1;outlineConnect=0;" parent="1" vertex="1">
          <mxGeometry x="230" y="6720" width="30" height="60" as="geometry" />
        </mxCell>
        <mxCell id="oE2IQZJVkQL2bqvnhQpu-26" value="" style="endArrow=none;html=1;rounded=0;exitX=0.5;exitY=0.5;exitDx=0;exitDy=0;exitPerimeter=0;entryX=0;entryY=1;entryDx=0;entryDy=0;edgeStyle=orthogonalEdgeStyle;" parent="1" source="oE2IQZJVkQL2bqvnhQpu-25" target="oE2IQZJVkQL2bqvnhQpu-12" edge="1">
          <mxGeometry width="50" height="50" relative="1" as="geometry">
            <mxPoint x="270" y="6758" as="sourcePoint" />
            <mxPoint x="382" y="6780" as="targetPoint" />
          </mxGeometry>
        </mxCell>
        <mxCell id="KPlrOnKXJkRDlTgK6m8Z-1" value="" style="endArrow=classic;html=1;rounded=0;exitX=1.016;exitY=0.133;exitDx=0;exitDy=0;exitPerimeter=0;entryX=0.014;entryY=0.378;entryDx=0;entryDy=0;entryPerimeter=0;" parent="1" target="2HYMOYURkkRUxnqrE6Hb-2" edge="1">
          <mxGeometry width="50" height="50" relative="1" as="geometry">
            <mxPoint x="1860.0000000000005" y="3559.9999999999995" as="sourcePoint" />
            <mxPoint x="2097.4399999999996" y="3560.89" as="targetPoint" />
          </mxGeometry>
        </mxCell>
        <mxCell id="KPlrOnKXJkRDlTgK6m8Z-4" value="Ricerca hotel" style="edgeLabel;html=1;align=center;verticalAlign=middle;resizable=0;points=[];fontSize=15;" parent="KPlrOnKXJkRDlTgK6m8Z-1" connectable="0" vertex="1">
          <mxGeometry x="-0.0037" relative="1" as="geometry">
            <mxPoint as="offset" />
          </mxGeometry>
        </mxCell>
        <mxCell id="YFAXaZcwp7Uw4UsKdzpm-5" value="" style="endArrow=classic;html=1;rounded=0;entryX=0.001;entryY=0.56;entryDx=0;entryDy=0;fontSize=15;entryPerimeter=0;exitX=0.989;exitY=0.615;exitDx=0;exitDy=0;exitPerimeter=0;" parent="1" source="2HYMOYURkkRUxnqrE6Hb-2" edge="1">
          <mxGeometry width="50" height="50" relative="1" as="geometry">
            <mxPoint x="2790" y="3720.28" as="sourcePoint" />
            <mxPoint x="3050.1600000000008" y="3721.0800000000004" as="targetPoint" />
          </mxGeometry>
        </mxCell>
        <mxCell id="YFAXaZcwp7Uw4UsKdzpm-7" value="&lt;font style=&quot;font-size: 15px;&quot;&gt;Visualizzazione recensioni&lt;/font&gt;" style="edgeLabel;html=1;align=center;verticalAlign=middle;resizable=0;points=[];fontSize=15;" parent="YFAXaZcwp7Uw4UsKdzpm-5" connectable="0" vertex="1">
          <mxGeometry x="-0.0929" y="-2" relative="1" as="geometry">
            <mxPoint as="offset" />
          </mxGeometry>
        </mxCell>
        <mxCell id="YFAXaZcwp7Uw4UsKdzpm-10" value="" style="endArrow=classic;html=1;rounded=0;exitX=-0.002;exitY=0.147;exitDx=0;exitDy=0;exitPerimeter=0;fontSize=15;entryX=0.9;entryY=0.2;entryDx=0;entryDy=0;entryPerimeter=0;" parent="1" target="2HYMOYURkkRUxnqrE6Hb-2" edge="1">
          <mxGeometry width="50" height="50" relative="1" as="geometry">
            <mxPoint x="3049.6800000000003" y="3440.2400000000002" as="sourcePoint" />
            <mxPoint x="2790" y="3440.28" as="targetPoint" />
          </mxGeometry>
        </mxCell>
        <mxCell id="YFAXaZcwp7Uw4UsKdzpm-11" value="&lt;span style=&quot;font-size: 15px;&quot;&gt;Recupero password&lt;/span&gt;" style="edgeLabel;html=1;align=center;verticalAlign=middle;resizable=0;points=[];fontSize=15;" parent="YFAXaZcwp7Uw4UsKdzpm-10" connectable="0" vertex="1">
          <mxGeometry x="0.0204" y="2" relative="1" as="geometry">
            <mxPoint x="-1" as="offset" />
          </mxGeometry>
        </mxCell>
        <mxCell id="YFAXaZcwp7Uw4UsKdzpm-14" value="" style="endArrow=classic;html=1;rounded=0;fontSize=15;exitX=-0.002;exitY=0.736;exitDx=0;exitDy=0;exitPerimeter=0;entryX=0.908;entryY=0.792;entryDx=0;entryDy=0;entryPerimeter=0;" parent="1" target="2HYMOYURkkRUxnqrE6Hb-2" edge="1">
          <mxGeometry width="50" height="50" relative="1" as="geometry">
            <mxPoint x="3049.6800000000003" y="3840.7599999999998" as="sourcePoint" />
            <mxPoint x="2790" y="3840.28" as="targetPoint" />
          </mxGeometry>
        </mxCell>
        <mxCell id="YFAXaZcwp7Uw4UsKdzpm-15" value="&lt;font style=&quot;font-size: 15px;&quot;&gt;Cambio lingua&lt;/font&gt;" style="edgeLabel;html=1;align=center;verticalAlign=middle;resizable=0;points=[];fontSize=15;" parent="YFAXaZcwp7Uw4UsKdzpm-14" connectable="0" vertex="1">
          <mxGeometry x="0.0359" y="1" relative="1" as="geometry">
            <mxPoint as="offset" />
          </mxGeometry>
        </mxCell>
        <mxCell id="KPlrOnKXJkRDlTgK6m8Z-8" value="" style="endArrow=classic;html=1;rounded=0;entryX=0.1;entryY=0.199;entryDx=0;entryDy=0;entryPerimeter=0;" parent="1" target="2HYMOYURkkRUxnqrE6Hb-2" edge="1">
          <mxGeometry width="50" height="50" relative="1" as="geometry">
            <mxPoint x="1860" y="3440" as="sourcePoint" />
            <mxPoint x="2100" y="3440" as="targetPoint" />
          </mxGeometry>
        </mxCell>
        <mxCell id="KPlrOnKXJkRDlTgK6m8Z-9" value="Recupero password" style="edgeLabel;html=1;align=center;verticalAlign=middle;resizable=0;points=[];fontSize=15;" parent="KPlrOnKXJkRDlTgK6m8Z-8" connectable="0" vertex="1">
          <mxGeometry x="0.0193" y="-2" relative="1" as="geometry">
            <mxPoint as="offset" />
          </mxGeometry>
        </mxCell>
        <mxCell id="YFAXaZcwp7Uw4UsKdzpm-17" value="" style="endArrow=classic;html=1;rounded=0;exitX=0.818;exitY=0;exitDx=0;exitDy=0;exitPerimeter=0;" parent="1" edge="1">
          <mxGeometry width="50" height="50" relative="1" as="geometry">
            <mxPoint x="2576.9399999999996" y="4130" as="sourcePoint" />
            <mxPoint x="2577" y="3960" as="targetPoint" />
            <Array as="points" />
          </mxGeometry>
        </mxCell>
        <mxCell id="YFAXaZcwp7Uw4UsKdzpm-18" value="&lt;font style=&quot;font-size: 15px;&quot;&gt;Cambio lingua&lt;/font&gt;" style="edgeLabel;html=1;align=center;verticalAlign=middle;resizable=0;points=[];" parent="YFAXaZcwp7Uw4UsKdzpm-17" connectable="0" vertex="1">
          <mxGeometry x="0.0359" y="1" relative="1" as="geometry">
            <mxPoint x="2" y="-12" as="offset" />
          </mxGeometry>
        </mxCell>
        <mxCell id="KPlrOnKXJkRDlTgK6m8Z-12" value="" style="endArrow=classic;html=1;rounded=0;exitX=1.016;exitY=0.133;exitDx=0;exitDy=0;exitPerimeter=0;entryX=0.001;entryY=0.438;entryDx=0;entryDy=0;entryPerimeter=0;" parent="1" target="2HYMOYURkkRUxnqrE6Hb-2" edge="1">
          <mxGeometry width="50" height="50" relative="1" as="geometry">
            <mxPoint x="1861.9200000000005" y="3599.9999999999995" as="sourcePoint" />
            <mxPoint x="2099.3599999999997" y="3600.89" as="targetPoint" />
          </mxGeometry>
        </mxCell>
        <mxCell id="KPlrOnKXJkRDlTgK6m8Z-13" value="Prenotazione" style="edgeLabel;html=1;align=center;verticalAlign=middle;resizable=0;points=[];fontSize=15;" parent="KPlrOnKXJkRDlTgK6m8Z-12" connectable="0" vertex="1">
          <mxGeometry x="-0.0037" relative="1" as="geometry">
            <mxPoint as="offset" />
          </mxGeometry>
        </mxCell>
        <mxCell id="KPlrOnKXJkRDlTgK6m8Z-14" value="" style="endArrow=classic;html=1;rounded=0;exitX=1.016;exitY=0.133;exitDx=0;exitDy=0;exitPerimeter=0;entryX=0.031;entryY=0.318;entryDx=0;entryDy=0;entryPerimeter=0;" parent="1" target="2HYMOYURkkRUxnqrE6Hb-2" edge="1">
          <mxGeometry width="50" height="50" relative="1" as="geometry">
            <mxPoint x="1861.2800000000007" y="3519.5599999999995" as="sourcePoint" />
            <mxPoint x="2098.7199999999993" y="3520.45" as="targetPoint" />
          </mxGeometry>
        </mxCell>
        <mxCell id="KPlrOnKXJkRDlTgK6m8Z-15" value="Scelta filtri" style="edgeLabel;html=1;align=center;verticalAlign=middle;resizable=0;points=[];fontSize=15;" parent="KPlrOnKXJkRDlTgK6m8Z-14" connectable="0" vertex="1">
          <mxGeometry x="-0.0037" relative="1" as="geometry">
            <mxPoint as="offset" />
          </mxGeometry>
        </mxCell>
        <mxCell id="KPlrOnKXJkRDlTgK6m8Z-18" value="" style="endArrow=classic;html=1;rounded=0;exitX=1.016;exitY=0.133;exitDx=0;exitDy=0;exitPerimeter=0;entryX=0;entryY=0.496;entryDx=0;entryDy=0;entryPerimeter=0;" parent="1" target="2HYMOYURkkRUxnqrE6Hb-2" edge="1">
          <mxGeometry width="50" height="50" relative="1" as="geometry">
            <mxPoint x="1861.2800000000004" y="3639.5599999999995" as="sourcePoint" />
            <mxPoint x="2098.72" y="3640.45" as="targetPoint" />
          </mxGeometry>
        </mxCell>
        <mxCell id="KPlrOnKXJkRDlTgK6m8Z-19" value="Pagamento" style="edgeLabel;html=1;align=center;verticalAlign=middle;resizable=0;points=[];fontSize=15;" parent="KPlrOnKXJkRDlTgK6m8Z-18" connectable="0" vertex="1">
          <mxGeometry x="-0.0037" relative="1" as="geometry">
            <mxPoint as="offset" />
          </mxGeometry>
        </mxCell>
        <mxCell id="KPlrOnKXJkRDlTgK6m8Z-20" value="" style="endArrow=classic;html=1;rounded=0;exitX=0.062;exitY=0.259;exitDx=0;exitDy=0;exitPerimeter=0;" parent="1" source="2HYMOYURkkRUxnqrE6Hb-2" edge="1">
          <mxGeometry width="50" height="50" relative="1" as="geometry">
            <mxPoint x="2100" y="3480" as="sourcePoint" />
            <mxPoint x="1860" y="3480" as="targetPoint" />
          </mxGeometry>
        </mxCell>
        <mxCell id="KPlrOnKXJkRDlTgK6m8Z-21" value="&lt;font style=&quot;font-size: 15px;&quot;&gt;Mostra offerte&lt;/font&gt;" style="edgeLabel;html=1;align=center;verticalAlign=middle;resizable=0;points=[];" parent="KPlrOnKXJkRDlTgK6m8Z-20" connectable="0" vertex="1">
          <mxGeometry x="-0.0037" relative="1" as="geometry">
            <mxPoint as="offset" />
          </mxGeometry>
        </mxCell>
        <mxCell id="KPlrOnKXJkRDlTgK6m8Z-22" value="" style="endArrow=classic;html=1;rounded=0;entryX=0.012;entryY=0.616;entryDx=0;entryDy=0;entryPerimeter=0;" parent="1" target="2HYMOYURkkRUxnqrE6Hb-2" edge="1">
          <mxGeometry width="50" height="50" relative="1" as="geometry">
            <mxPoint x="1860" y="3721" as="sourcePoint" />
            <mxPoint x="2097.4399999999996" y="3721.7799999999997" as="targetPoint" />
          </mxGeometry>
        </mxCell>
        <mxCell id="KPlrOnKXJkRDlTgK6m8Z-23" value="Modifica lingua" style="edgeLabel;html=1;align=center;verticalAlign=middle;resizable=0;points=[];fontSize=15;" parent="KPlrOnKXJkRDlTgK6m8Z-22" connectable="0" vertex="1">
          <mxGeometry x="-0.0037" relative="1" as="geometry">
            <mxPoint as="offset" />
          </mxGeometry>
        </mxCell>
        <mxCell id="KPlrOnKXJkRDlTgK6m8Z-28" value="" style="endArrow=classic;html=1;rounded=0;exitX=1.016;exitY=0.133;exitDx=0;exitDy=0;exitPerimeter=0;entryX=0.03;entryY=0.675;entryDx=0;entryDy=0;entryPerimeter=0;" parent="1" target="2HYMOYURkkRUxnqrE6Hb-2" edge="1">
          <mxGeometry width="50" height="50" relative="1" as="geometry">
            <mxPoint x="1860.0000000000005" y="3760.8899999999994" as="sourcePoint" />
            <mxPoint x="2097.4399999999996" y="3761.7799999999997" as="targetPoint" />
          </mxGeometry>
        </mxCell>
        <mxCell id="KPlrOnKXJkRDlTgK6m8Z-29" value="Modifica password" style="edgeLabel;html=1;align=center;verticalAlign=middle;resizable=0;points=[];fontSize=15;" parent="KPlrOnKXJkRDlTgK6m8Z-28" connectable="0" vertex="1">
          <mxGeometry x="-0.0037" relative="1" as="geometry">
            <mxPoint as="offset" />
          </mxGeometry>
        </mxCell>
        <mxCell id="KPlrOnKXJkRDlTgK6m8Z-30" value="" style="endArrow=classic;html=1;rounded=0;entryX=0.054;entryY=0.731;entryDx=0;entryDy=0;entryPerimeter=0;" parent="1" target="2HYMOYURkkRUxnqrE6Hb-2" edge="1">
          <mxGeometry width="50" height="50" relative="1" as="geometry">
            <mxPoint x="1860" y="3800" as="sourcePoint" />
            <mxPoint x="2097.4399999999996" y="3801.7799999999997" as="targetPoint" />
          </mxGeometry>
        </mxCell>
        <mxCell id="KPlrOnKXJkRDlTgK6m8Z-31" value="Modifica prenotazione" style="edgeLabel;html=1;align=center;verticalAlign=middle;resizable=0;points=[];fontSize=15;" parent="KPlrOnKXJkRDlTgK6m8Z-30" connectable="0" vertex="1">
          <mxGeometry x="-0.0037" relative="1" as="geometry">
            <mxPoint as="offset" />
          </mxGeometry>
        </mxCell>
        <mxCell id="KPlrOnKXJkRDlTgK6m8Z-32" value="" style="endArrow=classic;html=1;rounded=0;entryX=0.091;entryY=0.792;entryDx=0;entryDy=0;entryPerimeter=0;" parent="1" target="2HYMOYURkkRUxnqrE6Hb-2" edge="1">
          <mxGeometry width="50" height="50" relative="1" as="geometry">
            <mxPoint x="1860" y="3840" as="sourcePoint" />
            <mxPoint x="2098.7199999999993" y="3841.7799999999997" as="targetPoint" />
          </mxGeometry>
        </mxCell>
        <mxCell id="KPlrOnKXJkRDlTgK6m8Z-33" value="Elimina prenotazione" style="edgeLabel;html=1;align=center;verticalAlign=middle;resizable=0;points=[];fontSize=15;" parent="KPlrOnKXJkRDlTgK6m8Z-32" connectable="0" vertex="1">
          <mxGeometry x="-0.0037" relative="1" as="geometry">
            <mxPoint as="offset" />
          </mxGeometry>
        </mxCell>
        <mxCell id="KPlrOnKXJkRDlTgK6m8Z-34" value="" style="endArrow=classic;html=1;rounded=0;exitX=1.016;exitY=0.133;exitDx=0;exitDy=0;exitPerimeter=0;entryX=0;entryY=0.555;entryDx=0;entryDy=0;entryPerimeter=0;" parent="1" target="2HYMOYURkkRUxnqrE6Hb-2" edge="1">
          <mxGeometry width="50" height="50" relative="1" as="geometry">
            <mxPoint x="1860.0000000000007" y="3679.9999999999995" as="sourcePoint" />
            <mxPoint x="2097.439999999999" y="3680.89" as="targetPoint" />
          </mxGeometry>
        </mxCell>
        <mxCell id="KPlrOnKXJkRDlTgK6m8Z-35" value="Recensione" style="edgeLabel;html=1;align=center;verticalAlign=middle;resizable=0;points=[];fontSize=15;" parent="KPlrOnKXJkRDlTgK6m8Z-34" connectable="0" vertex="1">
          <mxGeometry x="-0.0037" relative="1" as="geometry">
            <mxPoint as="offset" />
          </mxGeometry>
        </mxCell>
        <mxCell id="KPlrOnKXJkRDlTgK6m8Z-39" value="" style="endArrow=classic;html=1;rounded=0;exitX=1.016;exitY=0.133;exitDx=0;exitDy=0;exitPerimeter=0;entryX=0.14;entryY=0.852;entryDx=0;entryDy=0;entryPerimeter=0;" parent="1" target="2HYMOYURkkRUxnqrE6Hb-2" edge="1">
          <mxGeometry width="50" height="50" relative="1" as="geometry">
            <mxPoint x="1860.0000000000005" y="3879.9999999999995" as="sourcePoint" />
            <mxPoint x="2097.4399999999996" y="3880.89" as="targetPoint" />
          </mxGeometry>
        </mxCell>
        <mxCell id="KPlrOnKXJkRDlTgK6m8Z-40" value="Logout" style="edgeLabel;html=1;align=center;verticalAlign=middle;resizable=0;points=[];fontSize=15;" parent="KPlrOnKXJkRDlTgK6m8Z-39" connectable="0" vertex="1">
          <mxGeometry x="-0.0037" relative="1" as="geometry">
            <mxPoint as="offset" />
          </mxGeometry>
        </mxCell>
        <mxCell id="KPlrOnKXJkRDlTgK6m8Z-41" value="" style="endArrow=classic;html=1;rounded=0;exitX=1.016;exitY=0.133;exitDx=0;exitDy=0;exitPerimeter=0;entryX=0.212;entryY=0.91;entryDx=0;entryDy=0;entryPerimeter=0;" parent="1" target="2HYMOYURkkRUxnqrE6Hb-2" edge="1">
          <mxGeometry width="50" height="50" relative="1" as="geometry">
            <mxPoint x="1861.2800000000007" y="3919.9999999999995" as="sourcePoint" />
            <mxPoint x="2098.7199999999993" y="3920.89" as="targetPoint" />
          </mxGeometry>
        </mxCell>
        <mxCell id="KPlrOnKXJkRDlTgK6m8Z-42" value="Cancella account" style="edgeLabel;html=1;align=center;verticalAlign=middle;resizable=0;points=[];fontSize=15;" parent="KPlrOnKXJkRDlTgK6m8Z-41" connectable="0" vertex="1">
          <mxGeometry x="-0.0037" relative="1" as="geometry">
            <mxPoint as="offset" />
          </mxGeometry>
        </mxCell>
        <mxCell id="p6YyQ0KKUrkeItFZPZ-D-3" value="" style="endArrow=classic;html=1;rounded=0;fontSize=15;exitX=-0.002;exitY=0.793;exitDx=0;exitDy=0;exitPerimeter=0;entryX=1;entryY=1;entryDx=0;entryDy=0;" parent="1" target="2HYMOYURkkRUxnqrE6Hb-2" edge="1">
          <mxGeometry width="50" height="50" relative="1" as="geometry">
            <mxPoint x="3049.6800000000003" y="3879.52" as="sourcePoint" />
            <mxPoint x="2790" y="3880.28" as="targetPoint" />
          </mxGeometry>
        </mxCell>
        <mxCell id="p6YyQ0KKUrkeItFZPZ-D-6" value="Logout" style="edgeLabel;html=1;align=center;verticalAlign=middle;resizable=0;points=[];fontSize=15;" parent="p6YyQ0KKUrkeItFZPZ-D-3" vertex="1" connectable="0">
          <mxGeometry x="-0.0409" y="-1" relative="1" as="geometry">
            <mxPoint as="offset" />
          </mxGeometry>
        </mxCell>
        <mxCell id="KPlrOnKXJkRDlTgK6m8Z-54" value="" style="endArrow=classic;html=1;rounded=0;entryX=-0.002;entryY=0.323;entryDx=0;entryDy=0;entryPerimeter=0;fontSize=15;exitX=0.986;exitY=0.379;exitDx=0;exitDy=0;exitPerimeter=0;" parent="1" source="2HYMOYURkkRUxnqrE6Hb-2" edge="1">
          <mxGeometry width="50" height="50" relative="1" as="geometry">
            <mxPoint x="2790" y="3559.17" as="sourcePoint" />
            <mxPoint x="3049.6800000000003" y="3559.9200000000005" as="targetPoint" />
          </mxGeometry>
        </mxCell>
        <mxCell id="KPlrOnKXJkRDlTgK6m8Z-56" value="&lt;font style=&quot;font-size: 15px;&quot;&gt;Conferma pubblicazione hotel&lt;/font&gt;" style="edgeLabel;html=1;align=center;verticalAlign=middle;resizable=0;points=[];fontSize=15;" parent="KPlrOnKXJkRDlTgK6m8Z-54" connectable="0" vertex="1">
          <mxGeometry x="-0.0114" y="1" relative="1" as="geometry">
            <mxPoint as="offset" />
          </mxGeometry>
        </mxCell>
        <mxCell id="KPlrOnKXJkRDlTgK6m8Z-58" value="" style="endArrow=classic;html=1;rounded=0;exitX=-0.002;exitY=0.44;exitDx=0;exitDy=0;exitPerimeter=0;fontSize=15;entryX=1.002;entryY=0.495;entryDx=0;entryDy=0;entryPerimeter=0;" parent="1" target="2HYMOYURkkRUxnqrE6Hb-2" edge="1">
          <mxGeometry width="50" height="50" relative="1" as="geometry">
            <mxPoint x="3049.6800000000003" y="3639.48" as="sourcePoint" />
            <mxPoint x="2790" y="3639.17" as="targetPoint" />
          </mxGeometry>
        </mxCell>
        <mxCell id="KPlrOnKXJkRDlTgK6m8Z-59" value="&lt;font style=&quot;font-size: 15px;&quot;&gt;Crea offerta&lt;/font&gt;" style="edgeLabel;html=1;align=center;verticalAlign=middle;resizable=0;points=[];fontSize=15;" parent="KPlrOnKXJkRDlTgK6m8Z-58" connectable="0" vertex="1">
          <mxGeometry x="-0.0221" y="1" relative="1" as="geometry">
            <mxPoint as="offset" />
          </mxGeometry>
        </mxCell>
        <mxCell id="p6YyQ0KKUrkeItFZPZ-D-7" value="" style="endArrow=classic;html=1;rounded=0;exitX=0.215;exitY=0;exitDx=0;exitDy=0;exitPerimeter=0;entryX=0.295;entryY=0.96;entryDx=0;entryDy=0;entryPerimeter=0;" parent="1" target="2HYMOYURkkRUxnqrE6Hb-2" edge="1">
          <mxGeometry width="50" height="50" relative="1" as="geometry">
            <mxPoint x="2336.1600000000003" y="4130" as="sourcePoint" />
            <mxPoint x="2336.4699999999993" y="3942.2" as="targetPoint" />
          </mxGeometry>
        </mxCell>
        <mxCell id="p6YyQ0KKUrkeItFZPZ-D-8" value="&lt;font style=&quot;font-size: 15px;&quot;&gt;Registrazione&lt;/font&gt;" style="edgeLabel;html=1;align=center;verticalAlign=middle;resizable=0;points=[];" parent="p6YyQ0KKUrkeItFZPZ-D-7" vertex="1" connectable="0">
          <mxGeometry x="-0.0554" relative="1" as="geometry">
            <mxPoint x="-3" y="-17" as="offset" />
          </mxGeometry>
        </mxCell>
        <mxCell id="p6YyQ0KKUrkeItFZPZ-D-9" value="" style="endArrow=classic;html=1;rounded=0;" parent="1" edge="1">
          <mxGeometry width="50" height="50" relative="1" as="geometry">
            <mxPoint x="2457" y="4130" as="sourcePoint" />
            <mxPoint x="2457" y="3980" as="targetPoint" />
          </mxGeometry>
        </mxCell>
        <mxCell id="p6YyQ0KKUrkeItFZPZ-D-10" value="&lt;font style=&quot;font-size: 15px;&quot;&gt;Ricerca&lt;/font&gt;" style="edgeLabel;html=1;align=center;verticalAlign=middle;resizable=0;points=[];" parent="p6YyQ0KKUrkeItFZPZ-D-9" vertex="1" connectable="0">
          <mxGeometry x="-0.064" relative="1" as="geometry">
            <mxPoint x="-2" y="-29" as="offset" />
          </mxGeometry>
        </mxCell>
        <mxCell id="KPlrOnKXJkRDlTgK6m8Z-62" value="" style="endArrow=classic;html=1;rounded=0;exitX=-0.008;exitY=0.617;exitDx=0;exitDy=0;exitPerimeter=0;entryX=0.968;entryY=0.675;entryDx=0;entryDy=0;entryPerimeter=0;" parent="1" target="2HYMOYURkkRUxnqrE6Hb-2" edge="1">
          <mxGeometry width="50" height="50" relative="1" as="geometry">
            <mxPoint x="3048.7200000000003" y="3759.8399999999997" as="sourcePoint" />
            <mxPoint x="2790" y="3760.28" as="targetPoint" />
          </mxGeometry>
        </mxCell>
        <mxCell id="KPlrOnKXJkRDlTgK6m8Z-63" value="&lt;font style=&quot;font-size: 15px;&quot;&gt;Risposta alle recensioni&lt;/font&gt;" style="edgeLabel;html=1;align=center;verticalAlign=middle;resizable=0;points=[];" parent="KPlrOnKXJkRDlTgK6m8Z-62" connectable="0" vertex="1">
          <mxGeometry x="-0.0221" y="1" relative="1" as="geometry">
            <mxPoint as="offset" />
          </mxGeometry>
        </mxCell>
        <mxCell id="KPlrOnKXJkRDlTgK6m8Z-64" value="" style="endArrow=classic;html=1;rounded=0;exitX=-0.002;exitY=0.677;exitDx=0;exitDy=0;exitPerimeter=0;entryX=0.943;entryY=0.734;entryDx=0;entryDy=0;entryPerimeter=0;" parent="1" target="2HYMOYURkkRUxnqrE6Hb-2" edge="1">
          <mxGeometry width="50" height="50" relative="1" as="geometry">
            <mxPoint x="3049.6800000000003" y="3800.64" as="sourcePoint" />
            <mxPoint x="2790" y="3800.28" as="targetPoint" />
          </mxGeometry>
        </mxCell>
        <mxCell id="KPlrOnKXJkRDlTgK6m8Z-65" value="&lt;span style=&quot;font-size: 15px;&quot;&gt;Modifica password&lt;/span&gt;" style="edgeLabel;html=1;align=center;verticalAlign=middle;resizable=0;points=[];" parent="KPlrOnKXJkRDlTgK6m8Z-64" connectable="0" vertex="1">
          <mxGeometry x="-0.0221" y="1" relative="1" as="geometry">
            <mxPoint as="offset" />
          </mxGeometry>
        </mxCell>
        <mxCell id="p6YyQ0KKUrkeItFZPZ-D-11" value="" style="endArrow=classic;html=1;rounded=0;exitX=0.558;exitY=0.996;exitDx=0;exitDy=0;exitPerimeter=0;entryX=0.697;entryY=-0.004;entryDx=0;entryDy=0;entryPerimeter=0;" parent="1" target="2HYMOYURkkRUxnqrE6Hb-9" edge="1">
          <mxGeometry width="50" height="50" relative="1" as="geometry">
            <mxPoint x="2518.54" y="3977.3" as="sourcePoint" />
            <mxPoint x="2520" y="4128" as="targetPoint" />
          </mxGeometry>
        </mxCell>
        <mxCell id="p6YyQ0KKUrkeItFZPZ-D-12" value="&lt;font style=&quot;font-size: 15px;&quot;&gt;Mostra offerte&lt;/font&gt;" style="edgeLabel;html=1;align=center;verticalAlign=middle;resizable=0;points=[];" parent="p6YyQ0KKUrkeItFZPZ-D-11" vertex="1" connectable="0">
          <mxGeometry x="-0.1624" relative="1" as="geometry">
            <mxPoint x="-1" y="28" as="offset" />
          </mxGeometry>
        </mxCell>
        <mxCell id="KPlrOnKXJkRDlTgK6m8Z-60" value="" style="endArrow=classic;html=1;rounded=0;exitX=0;exitY=0.5;exitDx=0;exitDy=0;fontSize=15;entryX=1;entryY=0.556;entryDx=0;entryDy=0;entryPerimeter=0;" parent="1" target="2HYMOYURkkRUxnqrE6Hb-2" edge="1">
          <mxGeometry width="50" height="50" relative="1" as="geometry">
            <mxPoint x="3050" y="3680.28" as="sourcePoint" />
            <mxPoint x="2790" y="3679.17" as="targetPoint" />
          </mxGeometry>
        </mxCell>
        <mxCell id="KPlrOnKXJkRDlTgK6m8Z-61" value="&lt;font style=&quot;font-size: 15px;&quot;&gt;Cancella offerta&lt;/font&gt;" style="edgeLabel;html=1;align=center;verticalAlign=middle;resizable=0;points=[];fontSize=15;" parent="KPlrOnKXJkRDlTgK6m8Z-60" connectable="0" vertex="1">
          <mxGeometry x="-0.0221" y="1" relative="1" as="geometry">
            <mxPoint as="offset" />
          </mxGeometry>
        </mxCell>
        <mxCell id="KPlrOnKXJkRDlTgK6m8Z-66" value="" style="endArrow=classic;html=1;rounded=0;fontSize=15;entryX=0.998;entryY=0.438;entryDx=0;entryDy=0;entryPerimeter=0;" parent="1" target="2HYMOYURkkRUxnqrE6Hb-2" edge="1">
          <mxGeometry width="50" height="50" relative="1" as="geometry">
            <mxPoint x="3050" y="3600.28" as="sourcePoint" />
            <mxPoint x="2790" y="3600.28" as="targetPoint" />
          </mxGeometry>
        </mxCell>
        <mxCell id="KPlrOnKXJkRDlTgK6m8Z-67" value="&lt;font style=&quot;font-size: 15px;&quot;&gt;Cancella hotel&lt;/font&gt;" style="edgeLabel;html=1;align=center;verticalAlign=middle;resizable=0;points=[];fontSize=15;" parent="KPlrOnKXJkRDlTgK6m8Z-66" connectable="0" vertex="1">
          <mxGeometry x="-0.0221" y="1" relative="1" as="geometry">
            <mxPoint as="offset" />
          </mxGeometry>
        </mxCell>
        <mxCell id="1hOsGiNReIinWaUmLcxR-2" value="Scelta stanza" style="ellipse;whiteSpace=wrap;html=1;" parent="1" vertex="1">
          <mxGeometry x="1251" y="4012" width="120" height="80" as="geometry" />
        </mxCell>
        <mxCell id="1hOsGiNReIinWaUmLcxR-3" value="" style="endArrow=classic;html=1;rounded=0;exitX=1;exitY=0;exitDx=0;exitDy=0;entryX=0;entryY=0.5;entryDx=0;entryDy=0;edgeStyle=orthogonalEdgeStyle;dashed=1;" parent="1" source="mxfJlP3PRgjQnhU5pGyH-20" target="DWLaBxBilSsCNJHHFzsS-1" edge="1">
          <mxGeometry width="50" height="50" relative="1" as="geometry">
            <mxPoint x="1080" y="4090" as="sourcePoint" />
            <mxPoint x="1130" y="4040" as="targetPoint" />
            <Array as="points">
              <mxPoint x="1150" y="3974" />
              <mxPoint x="1150" y="3860" />
            </Array>
          </mxGeometry>
        </mxCell>
        <mxCell id="DWLaBxBilSsCNJHHFzsS-3" value="&amp;lt;&amp;lt;include&amp;gt;&amp;gt;" style="edgeLabel;html=1;align=center;verticalAlign=middle;resizable=0;points=[];" parent="1hOsGiNReIinWaUmLcxR-3" connectable="0" vertex="1">
          <mxGeometry x="0.0132" y="4" relative="1" as="geometry">
            <mxPoint x="34" y="-29" as="offset" />
          </mxGeometry>
        </mxCell>
        <mxCell id="1hOsGiNReIinWaUmLcxR-5" value="" style="endArrow=classic;html=1;rounded=0;exitX=1;exitY=1;exitDx=0;exitDy=0;edgeStyle=orthogonalEdgeStyle;dashed=1;entryX=0;entryY=0.5;entryDx=0;entryDy=0;" parent="1" source="mxfJlP3PRgjQnhU5pGyH-20" target="mxfJlP3PRgjQnhU5pGyH-25" edge="1">
          <mxGeometry width="50" height="50" relative="1" as="geometry">
            <mxPoint x="1160" y="4020" as="sourcePoint" />
            <mxPoint x="1200" y="4040" as="targetPoint" />
            <Array as="points">
              <mxPoint x="1150" y="4030" />
              <mxPoint x="1150" y="4150" />
            </Array>
          </mxGeometry>
        </mxCell>
        <mxCell id="DWLaBxBilSsCNJHHFzsS-5" value="&amp;lt;&amp;lt;include&amp;gt;&amp;gt;" style="edgeLabel;html=1;align=center;verticalAlign=middle;resizable=0;points=[];" parent="1hOsGiNReIinWaUmLcxR-5" connectable="0" vertex="1">
          <mxGeometry x="0.2615" y="1" relative="1" as="geometry">
            <mxPoint x="29" y="1" as="offset" />
          </mxGeometry>
        </mxCell>
        <mxCell id="DWLaBxBilSsCNJHHFzsS-1" value="Scelta periodo" style="ellipse;whiteSpace=wrap;html=1;" parent="1" vertex="1">
          <mxGeometry x="1250" y="3820" width="120" height="80" as="geometry" />
        </mxCell>
        <mxCell id="DWLaBxBilSsCNJHHFzsS-2" value="Scelta numero&lt;br&gt;di persone" style="ellipse;whiteSpace=wrap;html=1;" parent="1" vertex="1">
          <mxGeometry x="1251" y="3910" width="120" height="80" as="geometry" />
        </mxCell>
        <mxCell id="DWLaBxBilSsCNJHHFzsS-7" style="edgeStyle=orthogonalEdgeStyle;rounded=0;orthogonalLoop=1;jettySize=auto;html=1;entryX=0.014;entryY=0.528;entryDx=0;entryDy=0;entryPerimeter=0;exitX=0.975;exitY=0.711;exitDx=0;exitDy=0;exitPerimeter=0;dashed=1;" parent="1" source="mxfJlP3PRgjQnhU5pGyH-20" target="1hOsGiNReIinWaUmLcxR-2" edge="1">
          <mxGeometry relative="1" as="geometry" />
        </mxCell>
        <mxCell id="DWLaBxBilSsCNJHHFzsS-9" value="&amp;lt;&amp;lt;include&amp;gt;&amp;gt;" style="edgeLabel;html=1;align=center;verticalAlign=middle;resizable=0;points=[];" parent="DWLaBxBilSsCNJHHFzsS-7" connectable="0" vertex="1">
          <mxGeometry x="-0.2614" relative="1" as="geometry">
            <mxPoint x="8" y="1" as="offset" />
          </mxGeometry>
        </mxCell>
        <mxCell id="uEPZ6V3WudAnhYfeat4s-1" style="edgeStyle=orthogonalEdgeStyle;rounded=0;orthogonalLoop=1;jettySize=auto;html=1;exitX=0.5;exitY=0.5;exitDx=0;exitDy=0;exitPerimeter=0;entryX=0;entryY=0.5;entryDx=0;entryDy=0;endArrow=none;endFill=0;" parent="1" source="uEPZ6V3WudAnhYfeat4s-2" target="uEPZ6V3WudAnhYfeat4s-6" edge="1">
          <mxGeometry relative="1" as="geometry" />
        </mxCell>
        <mxCell id="uEPZ6V3WudAnhYfeat4s-2" value="Utente" style="shape=umlActor;verticalLabelPosition=bottom;verticalAlign=top;html=1;outlineConnect=0;" parent="1" vertex="1">
          <mxGeometry x="-640" y="1490" width="30" height="60" as="geometry" />
        </mxCell>
        <mxCell id="uEPZ6V3WudAnhYfeat4s-3" value="&amp;lt;&amp;lt;extend&amp;gt;&amp;gt;" style="edgeStyle=orthogonalEdgeStyle;rounded=0;orthogonalLoop=1;jettySize=auto;html=1;exitX=1;exitY=0.5;exitDx=0;exitDy=0;dashed=1;" parent="1" source="uEPZ6V3WudAnhYfeat4s-6" edge="1">
          <mxGeometry x="0.0175" relative="1" as="geometry">
            <mxPoint as="offset" />
            <mxPoint x="-330.5" y="1520" as="targetPoint" />
          </mxGeometry>
        </mxCell>
        <mxCell id="uEPZ6V3WudAnhYfeat4s-4" value="&amp;lt;&amp;lt;extend&amp;gt;&amp;gt;" style="edgeStyle=orthogonalEdgeStyle;rounded=0;orthogonalLoop=1;jettySize=auto;html=1;exitX=0.5;exitY=1;exitDx=0;exitDy=0;entryX=0;entryY=0.5;entryDx=0;entryDy=0;dashed=1;" parent="1" source="uEPZ6V3WudAnhYfeat4s-6" target="uEPZ6V3WudAnhYfeat4s-9" edge="1">
          <mxGeometry relative="1" as="geometry">
            <Array as="points">
              <mxPoint x="-490" y="1640" />
            </Array>
          </mxGeometry>
        </mxCell>
        <mxCell id="uEPZ6V3WudAnhYfeat4s-5" value="&amp;lt;&amp;lt;extend&amp;gt;&amp;gt;" style="edgeStyle=orthogonalEdgeStyle;rounded=0;orthogonalLoop=1;jettySize=auto;html=1;exitX=0.5;exitY=0;exitDx=0;exitDy=0;entryX=0;entryY=0.5;entryDx=0;entryDy=0;dashed=1;" parent="1" source="uEPZ6V3WudAnhYfeat4s-6" target="uEPZ6V3WudAnhYfeat4s-8" edge="1">
          <mxGeometry relative="1" as="geometry">
            <Array as="points">
              <mxPoint x="-490" y="1400" />
            </Array>
          </mxGeometry>
        </mxCell>
        <mxCell id="uEPZ6V3WudAnhYfeat4s-6" value="Accesso" style="ellipse;whiteSpace=wrap;html=1;" parent="1" vertex="1">
          <mxGeometry x="-550.5" y="1480" width="120" height="80" as="geometry" />
        </mxCell>
        <mxCell id="uEPZ6V3WudAnhYfeat4s-7" value="Controllo credenziali inserite" style="ellipse;whiteSpace=wrap;html=1;" parent="1" vertex="1">
          <mxGeometry x="-330.5" y="1480" width="120" height="80" as="geometry" />
        </mxCell>
        <mxCell id="uEPZ6V3WudAnhYfeat4s-8" value="Inserimento email" style="ellipse;whiteSpace=wrap;html=1;" parent="1" vertex="1">
          <mxGeometry x="-330.5" y="1360" width="120" height="80" as="geometry" />
        </mxCell>
        <mxCell id="uEPZ6V3WudAnhYfeat4s-9" value="Inserimento password" style="ellipse;whiteSpace=wrap;html=1;" parent="1" vertex="1">
          <mxGeometry x="-330.5" y="1600" width="120" height="80" as="geometry" />
        </mxCell>
        <mxCell id="uEPZ6V3WudAnhYfeat4s-10" style="edgeStyle=orthogonalEdgeStyle;rounded=0;orthogonalLoop=1;jettySize=auto;html=1;exitX=0.5;exitY=0.5;exitDx=0;exitDy=0;exitPerimeter=0;entryX=1;entryY=0.5;entryDx=0;entryDy=0;endArrow=none;endFill=0;" parent="1" source="uEPZ6V3WudAnhYfeat4s-11" target="uEPZ6V3WudAnhYfeat4s-7" edge="1">
          <mxGeometry relative="1" as="geometry" />
        </mxCell>
        <mxCell id="uEPZ6V3WudAnhYfeat4s-11" value="Database&amp;nbsp;" style="shape=umlActor;verticalLabelPosition=bottom;verticalAlign=top;html=1;" parent="1" vertex="1">
          <mxGeometry x="-127.5" y="1490" width="30" height="60" as="geometry" />
        </mxCell>
        <mxCell id="30Fzjk9BFhE4I-PH3Uh0-1" value="&lt;b style=&quot;font-weight:normal;&quot; id=&quot;docs-internal-guid-4ff0e257-7fff-2e4b-f510-fff2e1ca7c5c&quot;&gt;&lt;span style=&quot;font-size: 12pt; font-family: Arial, sans-serif; color: rgb(0, 0, 0); background-color: transparent; font-weight: 400; font-style: normal; font-variant: normal; text-decoration: none; vertical-align: baseline;&quot;&gt;&lt;span style=&quot;border:none;display:inline-block;overflow:hidden;width:559px;height:361px;&quot;&gt;&lt;img src=&quot;https://lh7-us.googleusercontent.com/j9QapP7sNGndumHZeb_C76KoobvVJ131yIT6l9gq3N4ZODzdV1p9Dt4ftCnKTzsbYR0VCDALhMicmojpf4qwHVZ5cKtZQ9rKiw09DG_IsGCY8CCdsOR_GKEJKm4nMKec6MvnDTRf9r5y5QhcImZAoms&quot; width=&quot;559&quot; height=&quot;361&quot; style=&quot;margin-left:0px;margin-top:0px;&quot;&gt;&lt;/span&gt;&lt;/span&gt;&lt;/b&gt;" style="text;whiteSpace=wrap;html=1;" parent="1" vertex="1">
          <mxGeometry x="-640" y="4400" width="560" height="390" as="geometry" />
        </mxCell>
        <mxCell id="30Fzjk9BFhE4I-PH3Uh0-4" style="edgeStyle=orthogonalEdgeStyle;rounded=0;orthogonalLoop=1;jettySize=auto;html=1;entryX=0;entryY=0;entryDx=0;entryDy=0;endArrow=none;endFill=0;" parent="1" source="30Fzjk9BFhE4I-PH3Uh0-3" target="SS0m3f73n02m4hr_4awN-11" edge="1">
          <mxGeometry relative="1" as="geometry" />
        </mxCell>
        <mxCell id="30Fzjk9BFhE4I-PH3Uh0-3" value="Utente non&lt;br&gt;autenticato" style="shape=umlActor;verticalLabelPosition=bottom;verticalAlign=top;html=1;outlineConnect=0;" parent="1" vertex="1">
          <mxGeometry x="145" y="4600" width="30" height="60" as="geometry" />
        </mxCell>
        <mxCell id="IFVcJFNBKvSpaOaenvP1-1" style="edgeStyle=orthogonalEdgeStyle;rounded=0;orthogonalLoop=1;jettySize=auto;html=1;entryX=0.5;entryY=0.5;entryDx=0;entryDy=0;entryPerimeter=0;exitX=1;exitY=0.5;exitDx=0;exitDy=0;endArrow=none;endFill=0;" parent="1" edge="1">
          <mxGeometry relative="1" as="geometry">
            <mxPoint x="553.98" y="4580" as="sourcePoint" />
            <mxPoint x="713.98" y="4790" as="targetPoint" />
            <Array as="points">
              <mxPoint x="795.98" y="4580" />
              <mxPoint x="795.98" y="4790" />
            </Array>
          </mxGeometry>
        </mxCell>
      </root>
    </mxGraphModel>
  </diagram>
</mxfile>
